<svg width="414" height="107" viewBox="0 0 414 107" fill="none" xmlns="http://www.w3.org/2000/svg">
<path d="M4.608 57.252C3.624 57.252 3.132 56.736 3.132 55.704V32.88C3.132 31.872 3.624 31.368 4.608 31.368C5.592 31.368 6.084 31.872 6.084 32.88V43.14H6.156L17.892 32.196C18.468 31.644 19.068 31.368 19.692 31.368C20.34 31.368 20.724 31.608 20.844 32.088C20.988 32.544 20.844 32.976 20.412 33.384L9 43.932L20.988 55.02C21.516 55.524 21.684 56.028 21.492 56.532C21.3 57.012 20.88 57.252 20.232 57.252C19.872 57.252 19.56 57.168 19.296 57C19.056 56.856 18.78 56.628 18.468 56.316L6.156 45.048H6.084V55.704C6.084 56.736 5.592 57.252 4.608 57.252ZM27.252 57C26.172 57 25.632 56.46 25.632 55.38V33.24C25.632 32.16 26.172 31.62 27.252 31.62H40.644C41.484 31.62 41.904 32.028 41.904 32.844C41.904 33.684 41.484 34.104 40.644 34.104H28.512V42.888H39.888C40.728 42.888 41.148 43.296 41.148 44.112C41.148 44.952 40.728 45.372 39.888 45.372H28.512V54.516H40.644C41.484 54.516 41.904 54.924 41.904 55.74C41.904 56.58 41.484 57 40.644 57H27.252ZM39.312 25.896C39.096 26.16 38.844 26.28 38.556 26.256C38.292 26.208 38.088 26.064 37.944 25.824C37.8 25.584 37.824 25.284 38.016 24.924L40.5 20.64C40.716 20.256 40.98 20.04 41.292 19.992C41.604 19.92 41.88 19.968 42.12 20.136C42.384 20.304 42.552 20.532 42.624 20.82C42.72 21.108 42.636 21.408 42.372 21.72L39.312 25.896ZM30.96 29.352C30.696 29.664 30.408 29.808 30.096 29.784C29.784 29.736 29.556 29.58 29.412 29.316C29.268 29.052 29.316 28.752 29.556 28.416L32.364 24.276C32.604 23.892 32.868 23.628 33.156 23.484C33.468 23.34 33.804 23.268 34.164 23.268C34.524 23.268 34.848 23.34 35.136 23.484C35.448 23.628 35.724 23.892 35.964 24.276L38.772 28.416C39.012 28.752 39.06 29.052 38.916 29.316C38.772 29.58 38.544 29.736 38.232 29.784C37.944 29.808 37.656 29.664 37.368 29.352L34.164 25.5L30.96 29.352ZM53.8673 57.252C52.8833 57.252 52.3913 56.736 52.3913 55.704V34.176H44.2913C43.3793 34.176 42.9232 33.744 42.9232 32.88C42.9232 32.04 43.3793 31.62 44.2913 31.62H63.4793C64.3913 31.62 64.8473 32.04 64.8473 32.88C64.8473 33.744 64.3913 34.176 63.4793 34.176H55.3793V55.704C55.3793 56.736 54.8753 57.252 53.8673 57.252ZM78.5048 57.252C77.5688 57.252 77.1008 56.76 77.1008 55.776V32.88C77.1008 31.872 77.5328 31.368 78.3968 31.368C78.7568 31.368 79.0328 31.44 79.2248 31.584C79.4168 31.704 79.6328 31.932 79.8728 32.268L94.7048 52.032V32.808C94.7048 31.848 95.1728 31.368 96.1088 31.368C96.9968 31.368 97.4408 31.848 97.4408 32.808V55.812C97.4408 56.772 97.0448 57.252 96.2528 57.252C95.8928 57.252 95.6048 57.18 95.3888 57.036C95.1728 56.892 94.9448 56.664 94.7048 56.352L79.8728 36.516V55.776C79.8728 56.76 79.4168 57.252 78.5048 57.252ZM114.405 57.324C112.053 57.324 110.001 56.796 108.249 55.74C106.521 54.66 105.177 53.148 104.217 51.204C103.281 49.26 102.813 46.956 102.813 44.292C102.813 41.628 103.281 39.324 104.217 37.38C105.153 35.436 106.485 33.936 108.213 32.88C109.965 31.824 112.029 31.296 114.405 31.296C116.805 31.296 118.869 31.824 120.597 32.88C122.349 33.936 123.693 35.436 124.629 37.38C125.589 39.3 126.069 41.592 126.069 44.256C126.069 46.92 125.589 49.236 124.629 51.204C123.669 53.148 122.313 54.66 120.561 55.74C118.833 56.796 116.781 57.324 114.405 57.324ZM114.405 54.696C117.117 54.696 119.217 53.784 120.705 51.96C122.193 50.136 122.937 47.58 122.937 44.292C122.937 41.004 122.193 38.46 120.705 36.66C119.217 34.836 117.117 33.924 114.405 33.924C111.741 33.924 109.665 34.836 108.177 36.66C106.689 38.46 105.945 41.004 105.945 44.292C105.945 47.556 106.689 50.112 108.177 51.96C109.665 53.784 111.741 54.696 114.405 54.696ZM119.553 25.896C119.337 26.16 119.085 26.28 118.797 26.256C118.533 26.208 118.329 26.064 118.185 25.824C118.041 25.584 118.065 25.284 118.257 24.924L120.741 20.64C120.957 20.256 121.221 20.04 121.533 19.992C121.845 19.92 122.121 19.968 122.361 20.136C122.625 20.304 122.793 20.532 122.865 20.82C122.961 21.108 122.877 21.408 122.613 21.72L119.553 25.896ZM111.201 29.352C110.937 29.664 110.649 29.808 110.337 29.784C110.025 29.736 109.797 29.58 109.653 29.316C109.509 29.052 109.557 28.752 109.797 28.416L112.605 24.276C112.845 23.892 113.109 23.628 113.397 23.484C113.709 23.34 114.045 23.268 114.405 23.268C114.765 23.268 115.089 23.34 115.377 23.484C115.689 23.628 115.965 23.892 116.205 24.276L119.013 28.416C119.253 28.752 119.301 29.052 119.157 29.316C119.013 29.58 118.785 29.736 118.473 29.784C118.185 29.808 117.897 29.664 117.609 29.352L114.405 25.5L111.201 29.352ZM132.823 57.252C131.839 57.252 131.347 56.736 131.347 55.704V32.916C131.347 31.884 131.839 31.368 132.823 31.368C133.807 31.368 134.299 31.884 134.299 32.916V55.704C134.299 56.736 133.807 57.252 132.823 57.252ZM159.162 57.252C158.322 57.252 157.722 56.82 157.362 55.956L147.462 33.312C147.198 32.712 147.21 32.244 147.498 31.908C147.786 31.548 148.182 31.368 148.686 31.368C149.118 31.368 149.442 31.476 149.658 31.692C149.898 31.884 150.102 32.172 150.27 32.556L159.198 53.256L168.09 32.52C168.258 32.136 168.462 31.848 168.702 31.656C168.942 31.464 169.278 31.368 169.71 31.368C170.214 31.368 170.586 31.56 170.826 31.944C171.066 32.304 171.066 32.76 170.826 33.312L160.926 55.956C160.734 56.388 160.506 56.712 160.242 56.928C159.978 57.144 159.618 57.252 159.162 57.252ZM184.788 57.324C182.436 57.324 180.384 56.796 178.632 55.74C176.904 54.66 175.56 53.148 174.6 51.204C173.664 49.26 173.196 46.956 173.196 44.292C173.196 41.628 173.664 39.324 174.6 37.38C175.536 35.436 176.868 33.936 178.596 32.88C180.348 31.824 182.412 31.296 184.788 31.296C187.188 31.296 189.252 31.824 190.98 32.88C192.732 33.936 194.076 35.436 195.012 37.38C195.972 39.3 196.452 41.592 196.452 44.256C196.452 46.92 195.972 49.236 195.012 51.204C194.052 53.148 192.696 54.66 190.944 55.74C189.216 56.796 187.164 57.324 184.788 57.324ZM184.788 54.696C187.5 54.696 189.6 53.784 191.088 51.96C192.576 50.136 193.32 47.58 193.32 44.292C193.32 41.004 192.576 38.46 191.088 36.66C189.6 34.836 187.5 33.924 184.788 33.924C182.124 33.924 180.048 34.836 178.56 36.66C177.072 38.46 176.328 41.004 176.328 44.292C176.328 47.556 177.072 50.112 178.56 51.96C180.048 53.784 182.124 54.696 184.788 54.696ZM188.568 33.42L186.804 31.476C187.428 31.524 187.968 31.56 188.424 31.584C188.904 31.608 189.372 31.62 189.828 31.62C191.34 31.62 192.372 31.308 192.924 30.684C193.476 30.036 193.752 29.124 193.752 27.948C193.752 27.108 194.184 26.688 195.048 26.688C195.912 26.688 196.344 27.132 196.344 28.02C196.344 29.604 195.876 30.9 194.94 31.908C194.028 32.916 192.78 33.42 191.196 33.42H188.568ZM186.012 29.316C185.748 29.604 185.448 29.724 185.112 29.676C184.8 29.604 184.56 29.436 184.392 29.172C184.224 28.884 184.248 28.572 184.464 28.236L187.668 23.592C187.932 23.208 188.232 23.004 188.568 22.98C188.928 22.932 189.24 23.004 189.504 23.196C189.792 23.388 189.972 23.64 190.044 23.952C190.14 24.264 190.044 24.576 189.756 24.888L186.012 29.316ZM203.206 57.252C202.222 57.252 201.73 56.736 201.73 55.704V32.916C201.73 31.884 202.222 31.368 203.206 31.368C204.19 31.368 204.682 31.884 204.682 32.916V55.704C204.682 56.736 204.19 57.252 203.206 57.252ZM231.237 57.324C228.741 57.324 226.605 56.796 224.829 55.74C223.053 54.684 221.685 53.184 220.725 51.24C219.789 49.296 219.321 46.98 219.321 44.292C219.321 41.628 219.789 39.324 220.725 37.38C221.685 35.436 223.053 33.936 224.829 32.88C226.605 31.824 228.741 31.296 231.237 31.296C232.725 31.296 234.141 31.512 235.485 31.944C236.829 32.376 237.993 32.988 238.977 33.78C239.385 34.068 239.613 34.404 239.661 34.788C239.733 35.172 239.673 35.52 239.481 35.832C239.289 36.12 239.013 36.312 238.653 36.408C238.317 36.48 237.933 36.36 237.501 36.048C235.797 34.68 233.733 33.996 231.309 33.996C228.453 33.996 226.269 34.896 224.757 36.696C223.245 38.496 222.489 41.028 222.489 44.292C222.489 47.58 223.245 50.124 224.757 51.924C226.269 53.724 228.453 54.624 231.309 54.624C233.733 54.624 235.821 53.928 237.573 52.536C238.005 52.248 238.389 52.14 238.725 52.212C239.085 52.284 239.349 52.464 239.517 52.752C239.709 53.04 239.781 53.364 239.733 53.724C239.685 54.084 239.481 54.408 239.121 54.696C238.089 55.56 236.901 56.22 235.557 56.676C234.213 57.108 232.773 57.324 231.237 57.324ZM245.956 57.252C244.972 57.252 244.48 56.736 244.48 55.704V32.916C244.48 31.884 244.972 31.368 245.956 31.368C246.94 31.368 247.432 31.884 247.432 32.916V42.852H262.66V32.916C262.66 31.884 263.152 31.368 264.136 31.368C265.12 31.368 265.612 31.884 265.612 32.916V55.704C265.612 56.736 265.12 57.252 264.136 57.252C263.152 57.252 262.66 56.736 262.66 55.704V45.408H247.432V55.704C247.432 56.736 246.94 57.252 245.956 57.252ZM281.874 57.324C278.538 57.324 276.006 56.448 274.278 54.696C272.55 52.92 271.686 50.34 271.686 46.956V32.88C271.686 31.872 272.178 31.368 273.162 31.368C274.146 31.368 274.638 31.872 274.638 32.88V46.812C274.638 52.068 277.05 54.696 281.874 54.696C286.65 54.696 289.038 52.068 289.038 46.812V32.88C289.038 31.872 289.542 31.368 290.55 31.368C291.51 31.368 291.99 31.872 291.99 32.88V46.956C291.99 50.34 291.126 52.92 289.398 54.696C287.694 56.448 285.186 57.324 281.874 57.324ZM283.134 29.316C282.87 29.604 282.57 29.724 282.234 29.676C281.922 29.604 281.682 29.436 281.514 29.172C281.346 28.884 281.37 28.572 281.586 28.236L284.79 23.592C285.054 23.208 285.354 23.004 285.69 22.98C286.05 22.932 286.362 23.004 286.626 23.196C286.914 23.388 287.094 23.64 287.166 23.952C287.262 24.264 287.166 24.576 286.878 24.888L283.134 29.316ZM299.462 57.252C298.526 57.252 298.058 56.76 298.058 55.776V32.88C298.058 31.872 298.49 31.368 299.354 31.368C299.714 31.368 299.99 31.44 300.182 31.584C300.374 31.704 300.59 31.932 300.83 32.268L315.662 52.032V32.808C315.662 31.848 316.13 31.368 317.066 31.368C317.954 31.368 318.398 31.848 318.398 32.808V55.812C318.398 56.772 318.002 57.252 317.21 57.252C316.85 57.252 316.562 57.18 316.346 57.036C316.13 56.892 315.902 56.664 315.662 56.352L300.83 36.516V55.776C300.83 56.76 300.374 57.252 299.462 57.252ZM336.298 57.324C332.218 57.324 329.11 56.172 326.974 53.868C324.838 51.564 323.77 48.384 323.77 44.328C323.77 41.64 324.25 39.324 325.21 37.38C326.17 35.436 327.55 33.936 329.35 32.88C331.15 31.824 333.322 31.296 335.866 31.296C337.378 31.296 338.842 31.512 340.258 31.944C341.674 32.352 342.934 33.012 344.038 33.924C344.374 34.164 344.566 34.464 344.614 34.824C344.662 35.16 344.59 35.484 344.398 35.796C344.23 36.084 343.978 36.276 343.642 36.372C343.33 36.468 342.994 36.396 342.634 36.156C341.65 35.388 340.606 34.836 339.502 34.5C338.398 34.14 337.174 33.96 335.83 33.96C332.95 33.96 330.742 34.872 329.206 36.696C327.67 38.496 326.902 41.04 326.902 44.328C326.902 47.688 327.694 50.256 329.278 52.032C330.862 53.808 333.226 54.696 336.37 54.696C338.41 54.696 340.366 54.348 342.238 53.652V46.128H337.09C336.226 46.128 335.794 45.732 335.794 44.94C335.794 44.172 336.226 43.788 337.09 43.788H343.534C344.374 43.788 344.794 44.208 344.794 45.048V54.444C344.794 55.188 344.53 55.668 344.002 55.884C342.994 56.316 341.782 56.664 340.366 56.928C338.974 57.192 337.618 57.324 336.298 57.324ZM367.813 57.252C366.829 57.252 366.337 56.736 366.337 55.704V34.176H358.237C357.325 34.176 356.869 33.744 356.869 32.88C356.869 32.04 357.325 31.62 358.237 31.62H377.425C378.337 31.62 378.793 32.04 378.793 32.88C378.793 33.744 378.337 34.176 377.425 34.176H369.325V55.704C369.325 56.736 368.821 57.252 367.813 57.252ZM390.839 57.324C388.487 57.324 386.435 56.796 384.683 55.74C382.955 54.66 381.611 53.148 380.651 51.204C379.715 49.26 379.247 46.956 379.247 44.292C379.247 41.628 379.715 39.324 380.651 37.38C381.587 35.436 382.919 33.936 384.647 32.88C386.399 31.824 388.463 31.296 390.839 31.296C393.239 31.296 395.303 31.824 397.031 32.88C398.783 33.936 400.127 35.436 401.063 37.38C402.023 39.3 402.503 41.592 402.503 44.256C402.503 46.92 402.023 49.236 401.063 51.204C400.103 53.148 398.747 54.66 396.995 55.74C395.267 56.796 393.215 57.324 390.839 57.324ZM390.839 54.696C393.551 54.696 395.651 53.784 397.139 51.96C398.627 50.136 399.371 47.58 399.371 44.292C399.371 41.004 398.627 38.46 397.139 36.66C395.651 34.836 393.551 33.924 390.839 33.924C388.175 33.924 386.099 34.836 384.611 36.66C383.123 38.46 382.379 41.004 382.379 44.292C382.379 47.556 383.123 50.112 384.611 51.96C386.099 53.784 388.175 54.696 390.839 54.696ZM387.383 29.352C387.095 29.664 386.783 29.796 386.447 29.748C386.111 29.7 385.859 29.544 385.691 29.28C385.547 29.016 385.595 28.716 385.835 28.38L389.003 23.952C389.459 23.28 390.071 22.944 390.839 22.944C391.607 22.944 392.231 23.28 392.711 23.952L395.843 28.38C396.083 28.716 396.119 29.016 395.951 29.28C395.807 29.544 395.567 29.7 395.231 29.748C394.895 29.796 394.595 29.664 394.331 29.352L390.839 25.176L387.383 29.352ZM409.256 57.252C408.272 57.252 407.78 56.736 407.78 55.704V32.916C407.78 31.884 408.272 31.368 409.256 31.368C410.24 31.368 410.732 31.884 410.732 32.916V55.704C410.732 56.736 410.24 57.252 409.256 57.252Z" fill="white"/>
<path d="M178.588 12.218C178.364 12.218 178.107 12.1013 177.818 11.868C177.538 11.644 177.235 11.3453 176.908 10.972C176.591 10.5987 176.278 10.188 175.97 9.74C175.662 9.292 175.368 8.844 175.088 8.396C174.817 7.93867 174.584 7.52333 174.388 7.15L173.114 11.266C173.049 11.49 172.927 11.6487 172.75 11.742C172.582 11.8447 172.395 11.9053 172.19 11.924C171.985 11.952 171.789 11.966 171.602 11.966C171.733 11.6767 171.863 11.364 171.994 11.028C172.125 10.7013 172.269 10.3047 172.428 9.838C172.587 9.37133 172.778 8.80667 173.002 8.144C173.235 7.48133 173.515 6.67867 173.842 5.736C174.169 4.79333 174.565 3.67333 175.032 2.376C175.051 2.31067 175.083 2.222 175.13 2.11C175.177 1.98867 175.2 1.87667 175.2 1.774C175.2 1.69 175.177 1.62467 175.13 1.578C175.093 1.53133 175.023 1.508 174.92 1.508C174.696 1.508 174.486 1.59667 174.29 1.774C174.094 1.942 173.917 2.15667 173.758 2.418C173.599 2.67 173.473 2.93133 173.38 3.202C173.296 3.47267 173.254 3.71067 173.254 3.916C173.254 4.13067 173.301 4.34533 173.394 4.56C172.993 4.56 172.703 4.476 172.526 4.308C172.358 4.13067 172.274 3.91133 172.274 3.65C172.274 3.33267 172.372 3.01533 172.568 2.698C172.764 2.37133 173.011 2.07733 173.31 1.816C173.618 1.54533 173.94 1.33067 174.276 1.172C174.621 1.004 174.939 0.92 175.228 0.92C175.545 0.92 175.751 1.00867 175.844 1.186C175.947 1.354 175.998 1.536 175.998 1.732C175.998 1.83467 175.989 1.93267 175.97 2.026C175.951 2.11933 175.928 2.208 175.9 2.292L174.864 5.652C174.967 5.58667 175.083 5.50267 175.214 5.4C175.354 5.29733 175.559 5.14333 175.83 4.938C176.353 4.52733 176.857 4.098 177.342 3.65C177.827 3.202 178.275 2.74467 178.686 2.278C179.097 1.802 179.451 1.33533 179.75 0.877999C179.862 0.980666 179.937 1.11133 179.974 1.27C180.011 1.41933 180.03 1.54067 180.03 1.634C180.03 1.92333 179.909 2.24067 179.666 2.586C179.433 2.922 179.12 3.272 178.728 3.636C178.345 4 177.925 4.35933 177.468 4.714C177.011 5.06867 176.553 5.4 176.096 5.708C175.639 6.016 175.228 6.28667 174.864 6.52C175.163 6.97733 175.447 7.41133 175.718 7.822C175.998 8.23267 176.306 8.63867 176.642 9.04C176.978 9.432 177.37 9.84267 177.818 10.272C178.275 10.692 178.821 11.1447 179.456 11.63C179.372 11.7887 179.246 11.924 179.078 12.036C178.91 12.1573 178.747 12.218 178.588 12.218ZM181.538 11.616C180.941 11.616 180.479 11.4527 180.152 11.126C179.835 10.8087 179.676 10.4073 179.676 9.922C179.676 9.51133 179.779 9.07733 179.984 8.62C180.199 8.15333 180.483 7.71933 180.838 7.318C181.193 6.90733 181.585 6.576 182.014 6.324C182.443 6.072 182.873 5.946 183.302 5.946C183.545 5.946 183.773 6.01133 183.988 6.142C184.212 6.26333 184.324 6.51067 184.324 6.884C184.324 7.23867 184.221 7.57 184.016 7.878C183.811 8.186 183.535 8.46133 183.19 8.704C182.845 8.94667 182.462 9.14733 182.042 9.306C181.631 9.45533 181.216 9.55333 180.796 9.6C180.787 9.63733 180.777 9.67933 180.768 9.726C180.768 9.76333 180.768 9.82867 180.768 9.922C180.768 9.96867 180.773 10.0527 180.782 10.174C180.801 10.286 180.843 10.4073 180.908 10.538C180.973 10.6687 181.081 10.7807 181.23 10.874C181.379 10.9673 181.585 11.014 181.846 11.014C182.238 11.014 182.63 10.9067 183.022 10.692C183.423 10.468 183.797 10.174 184.142 9.81C184.497 9.446 184.791 9.04 185.024 8.592L185.304 8.816C185.052 9.376 184.725 9.866 184.324 10.286C183.932 10.706 183.493 11.0327 183.008 11.266C182.532 11.4993 182.042 11.616 181.538 11.616ZM180.95 9.082C181.193 9.054 181.463 8.97 181.762 8.83C182.061 8.69 182.345 8.51267 182.616 8.298C182.896 8.08333 183.125 7.85 183.302 7.598C183.479 7.33667 183.568 7.07533 183.568 6.814C183.568 6.71133 183.549 6.64133 183.512 6.604C183.475 6.56667 183.414 6.548 183.33 6.548C183.115 6.548 182.891 6.62733 182.658 6.786C182.425 6.93533 182.196 7.136 181.972 7.388C181.748 7.63067 181.547 7.90133 181.37 8.2C181.193 8.49867 181.053 8.79267 180.95 9.082ZM185.934 4.434C185.813 4.38733 185.724 4.322 185.668 4.238C185.621 4.154 185.598 4.06533 185.598 3.972C185.598 3.888 185.64 3.77133 185.724 3.622C185.808 3.46333 185.915 3.30467 186.046 3.146C186.177 2.98733 186.317 2.852 186.466 2.74C186.615 2.628 186.755 2.572 186.886 2.572C186.989 2.572 187.077 2.60933 187.152 2.684C187.236 2.74933 187.287 2.87533 187.306 3.062C187.203 3.146 187.063 3.272 186.886 3.44C186.718 3.59867 186.545 3.77133 186.368 3.958C186.2 4.13533 186.055 4.294 185.934 4.434ZM185.248 5.806C185.099 5.554 184.94 5.344 184.772 5.176C184.613 4.99867 184.436 4.82133 184.24 4.644C183.988 4.728 183.745 4.83067 183.512 4.952C183.288 5.07333 183.055 5.21333 182.812 5.372C182.747 5.32533 182.7 5.26 182.672 5.176C182.644 5.092 182.63 5.02667 182.63 4.98C182.63 4.84 182.691 4.7 182.812 4.56C182.943 4.42 183.101 4.294 183.288 4.182C183.475 4.06067 183.657 3.96267 183.834 3.888C184.011 3.81333 184.151 3.776 184.254 3.776C184.366 3.776 184.497 3.82733 184.646 3.93C184.805 4.02333 184.954 4.14933 185.094 4.308C185.243 4.45733 185.365 4.62067 185.458 4.798C185.551 4.966 185.598 5.12 185.598 5.26C185.598 5.35333 185.57 5.45133 185.514 5.554C185.467 5.65667 185.379 5.74067 185.248 5.806ZM185.96 11.644C185.549 11.644 185.218 11.5227 184.966 11.28C184.714 11.0373 184.588 10.6687 184.588 10.174C184.588 9.79133 184.658 9.31533 184.798 8.746C184.947 8.17667 185.134 7.58867 185.358 6.982C185.292 6.96333 185.213 6.94933 185.12 6.94C185.036 6.92133 184.952 6.89333 184.868 6.856V6.422C185.017 6.44067 185.138 6.45467 185.232 6.464C185.334 6.47333 185.437 6.48267 185.54 6.492C185.736 5.99733 185.946 5.52133 186.17 5.064C186.403 4.59733 186.632 4.182 186.856 3.818C187.089 3.454 187.308 3.16933 187.514 2.964C187.719 2.74933 187.901 2.642 188.06 2.642C188.153 2.642 188.242 2.67933 188.326 2.754C188.41 2.81933 188.452 2.91733 188.452 3.048C188.452 3.23467 188.354 3.50067 188.158 3.846C187.971 4.19133 187.738 4.59733 187.458 5.064C187.178 5.52133 186.907 6.01133 186.646 6.534C186.72 6.534 186.795 6.534 186.87 6.534C186.944 6.534 187.014 6.534 187.08 6.534C187.49 6.534 187.859 6.52933 188.186 6.52C188.522 6.50133 188.862 6.47333 189.208 6.436V6.898C188.694 6.94467 188.223 6.982 187.794 7.01C187.364 7.038 186.954 7.05667 186.562 7.066C186.534 7.066 186.506 7.066 186.478 7.066C186.45 7.066 186.422 7.066 186.394 7.066C186.198 7.52333 186.025 7.99467 185.876 8.48C185.736 8.956 185.666 9.42267 185.666 9.88C185.666 10.2627 185.726 10.5333 185.848 10.692C185.969 10.8507 186.16 10.93 186.422 10.93C186.888 10.93 187.364 10.72 187.85 10.3C188.344 9.87067 188.774 9.292 189.138 8.564L189.334 8.704C189.091 9.25467 188.788 9.754 188.424 10.202C188.069 10.65 187.682 11 187.262 11.252C186.842 11.5133 186.408 11.644 185.96 11.644ZM197.073 11.28C196.709 11.28 196.429 11.1867 196.233 11C196.047 10.8227 195.953 10.594 195.953 10.314C195.953 10.1273 195.986 9.93133 196.051 9.726C196.117 9.51133 196.182 9.29667 196.247 9.082C196.313 8.86733 196.345 8.662 196.345 8.466C196.345 8.26067 196.294 8.12067 196.191 8.046C196.098 7.962 195.986 7.92 195.855 7.92C195.575 7.92 195.286 8.03667 194.987 8.27C194.698 8.494 194.413 8.77867 194.133 9.124C193.863 9.46933 193.606 9.82867 193.363 10.202C193.121 10.5753 192.911 10.9113 192.733 11.21C192.556 11.21 192.388 11.1773 192.229 11.112C192.071 11.056 191.935 10.9533 191.823 10.804C191.833 10.7573 191.889 10.6173 191.991 10.384C192.085 10.1413 192.192 9.85667 192.313 9.53C192.435 9.194 192.542 8.844 192.635 8.48C192.729 8.116 192.775 7.78467 192.775 7.486C192.841 7.41133 192.939 7.33667 193.069 7.262C193.209 7.18733 193.354 7.15 193.503 7.15C193.83 7.15 193.993 7.29 193.993 7.57C193.993 7.682 193.97 7.85 193.923 8.074C193.886 8.28867 193.83 8.536 193.755 8.816C193.998 8.48933 194.264 8.18133 194.553 7.892C194.843 7.60267 195.141 7.36933 195.449 7.192C195.767 7.00533 196.084 6.912 196.401 6.912C196.803 6.912 197.097 7.04733 197.283 7.318C197.479 7.58867 197.577 7.88733 197.577 8.214C197.577 8.494 197.531 8.75533 197.437 8.998C197.344 9.24067 197.251 9.46933 197.157 9.684C197.073 9.89867 197.031 10.1087 197.031 10.314C197.031 10.4633 197.064 10.5707 197.129 10.636C197.204 10.692 197.283 10.72 197.367 10.72C197.591 10.72 197.825 10.6127 198.067 10.398C198.31 10.1833 198.539 9.91267 198.753 9.586C198.977 9.25 199.173 8.914 199.341 8.578L199.579 8.774C199.383 9.23133 199.159 9.65133 198.907 10.034C198.665 10.4073 198.389 10.7107 198.081 10.944C197.783 11.168 197.447 11.28 197.073 11.28ZM199.897 11.448C199.477 11.448 199.187 11.308 199.029 11.028C198.879 10.7573 198.805 10.4587 198.805 10.132C198.805 9.83333 198.851 9.53 198.945 9.222C199.038 8.90467 199.164 8.61067 199.323 8.34C199.491 8.06933 199.673 7.85467 199.869 7.696C200.074 7.528 200.279 7.444 200.485 7.444C200.55 7.444 200.625 7.458 200.709 7.486C200.802 7.50467 200.867 7.53733 200.905 7.584C200.793 7.724 200.676 7.89667 200.555 8.102C200.443 8.30733 200.335 8.52667 200.233 8.76C200.139 8.984 200.065 9.21267 200.009 9.446C199.953 9.67933 199.925 9.894 199.925 10.09C199.925 10.2767 199.957 10.4307 200.023 10.552C200.097 10.6733 200.223 10.734 200.401 10.734C200.578 10.734 200.788 10.636 201.031 10.44C201.283 10.2347 201.521 10.0013 201.745 9.74C201.446 9.46933 201.231 9.17533 201.101 8.858C200.97 8.53133 200.905 8.13933 200.905 7.682C200.905 7.486 200.951 7.262 201.045 7.01C201.147 6.758 201.306 6.53867 201.521 6.352C201.745 6.16533 202.043 6.072 202.417 6.072C202.818 6.072 203.098 6.184 203.257 6.408C203.425 6.632 203.509 6.898 203.509 7.206C203.509 7.55133 203.415 7.93867 203.229 8.368C203.051 8.79733 202.837 9.20333 202.585 9.586C202.697 9.642 202.827 9.67 202.977 9.67C203.117 9.67 203.285 9.63733 203.481 9.572C203.677 9.50667 203.868 9.39933 204.055 9.25C204.241 9.09133 204.391 8.88133 204.503 8.62L204.755 8.802C204.549 9.278 204.274 9.628 203.929 9.852C203.593 10.0667 203.261 10.174 202.935 10.174C202.813 10.174 202.692 10.1647 202.571 10.146C202.449 10.118 202.337 10.0853 202.235 10.048C201.917 10.4213 201.553 10.748 201.143 11.028C200.732 11.308 200.317 11.448 199.897 11.448ZM202.109 9.292C202.333 8.96533 202.524 8.61533 202.683 8.242C202.841 7.86867 202.921 7.52333 202.921 7.206C202.921 6.99133 202.888 6.83733 202.823 6.744C202.757 6.64133 202.659 6.59 202.529 6.59C202.351 6.59 202.169 6.716 201.983 6.968C201.796 7.22 201.703 7.53733 201.703 7.92C201.703 8.116 201.735 8.354 201.801 8.634C201.875 8.914 201.978 9.13333 202.109 9.292ZM204.923 4.364C204.801 4.31733 204.713 4.252 204.657 4.168C204.61 4.084 204.587 3.99533 204.587 3.902C204.587 3.818 204.629 3.70133 204.713 3.552C204.797 3.39333 204.904 3.23467 205.035 3.076C205.165 2.91733 205.305 2.782 205.455 2.67C205.604 2.558 205.744 2.502 205.875 2.502C205.977 2.502 206.066 2.53933 206.141 2.614C206.225 2.67933 206.276 2.80533 206.295 2.992C206.192 3.076 206.052 3.202 205.875 3.37C205.707 3.52867 205.534 3.70133 205.357 3.888C205.189 4.06533 205.044 4.224 204.923 4.364ZM204.237 5.736C204.087 5.484 203.929 5.274 203.761 5.106C203.602 4.92867 203.425 4.75133 203.229 4.574C202.977 4.658 202.734 4.76067 202.501 4.882C202.277 5.00333 202.043 5.14333 201.801 5.302C201.735 5.25533 201.689 5.19 201.661 5.106C201.633 5.022 201.619 4.95667 201.619 4.91C201.619 4.77 201.679 4.63 201.801 4.49C201.931 4.35 202.09 4.224 202.277 4.112C202.463 3.99067 202.645 3.89267 202.823 3.818C203 3.74333 203.14 3.706 203.243 3.706C203.355 3.706 203.485 3.75733 203.635 3.86C203.793 3.95333 203.943 4.07933 204.083 4.238C204.232 4.38733 204.353 4.55067 204.447 4.728C204.54 4.896 204.587 5.05 204.587 5.19C204.587 5.28333 204.559 5.38133 204.503 5.484C204.456 5.58667 204.367 5.67067 204.237 5.736ZM205.302 11.42C204.891 11.42 204.583 11.2987 204.378 11.056C204.172 10.8133 204.07 10.5193 204.07 10.174C204.07 9.95933 204.107 9.68867 204.182 9.362C204.256 9.03533 204.359 8.69467 204.49 8.34C204.63 7.976 204.788 7.63533 204.966 7.318C205.143 7.00067 205.334 6.744 205.54 6.548C205.745 6.34267 205.95 6.24 206.156 6.24C206.268 6.24 206.366 6.27267 206.45 6.338C206.534 6.40333 206.576 6.506 206.576 6.646C206.576 6.76733 206.501 6.94933 206.352 7.192C206.212 7.43467 206.044 7.71467 205.848 8.032C205.661 8.34933 205.493 8.68067 205.344 9.026C205.204 9.362 205.134 9.684 205.134 9.992C205.134 10.2907 205.185 10.4913 205.288 10.594C205.4 10.6873 205.558 10.734 205.764 10.734C206.081 10.734 206.426 10.5753 206.8 10.258C207.173 9.94067 207.56 9.38533 207.962 8.592L208.172 8.816C207.845 9.63733 207.43 10.2767 206.926 10.734C206.422 11.1913 205.88 11.42 205.302 11.42ZM206.954 5.106C206.776 5.106 206.613 5.064 206.464 4.98C206.324 4.88667 206.254 4.74667 206.254 4.56C206.254 4.336 206.375 4.14467 206.618 3.986C206.86 3.82733 207.112 3.748 207.374 3.748C207.542 3.748 207.682 3.78533 207.794 3.86C207.915 3.93467 207.976 4.07 207.976 4.266C207.976 4.462 207.868 4.65333 207.654 4.84C207.439 5.01733 207.206 5.106 206.954 5.106ZM214.498 12.218C213.957 12.218 213.439 12.1247 212.944 11.938C212.459 11.7513 212.062 11.4667 211.754 11.084C211.446 10.7013 211.292 10.2253 211.292 9.656C211.292 9.152 211.404 8.76 211.628 8.48C211.852 8.19067 212.132 7.99 212.468 7.878C212.804 7.766 213.131 7.71 213.448 7.71C213.15 8.02733 212.921 8.354 212.762 8.69C212.613 9.026 212.538 9.348 212.538 9.656C212.538 9.97333 212.618 10.272 212.776 10.552C212.944 10.8227 213.192 11.042 213.518 11.21C213.845 11.3873 214.251 11.476 214.736 11.476C215.156 11.476 215.562 11.406 215.954 11.266C216.356 11.126 216.682 10.916 216.934 10.636C217.196 10.356 217.326 10.006 217.326 9.586C217.326 9.20333 217.214 8.87667 216.99 8.606C216.776 8.326 216.496 8.07867 216.15 7.864C215.805 7.64 215.441 7.43 215.058 7.234C214.676 7.02867 214.312 6.80933 213.966 6.576C213.621 6.34267 213.336 6.072 213.112 5.764C212.898 5.456 212.79 5.08733 212.79 4.658C212.79 4.27533 212.884 3.86933 213.07 3.44C213.266 3.00133 213.542 2.59067 213.896 2.208C214.251 1.82533 214.68 1.51733 215.184 1.284C215.688 1.04133 216.248 0.92 216.864 0.92C217.508 0.92 217.961 1.05533 218.222 1.326C218.484 1.59667 218.614 1.95133 218.614 2.39C218.614 2.73533 218.554 3.104 218.432 3.496C218.311 3.888 218.162 4.26133 217.984 4.616C217.816 4.97067 217.653 5.274 217.494 5.526C217.289 5.47933 217.135 5.4 217.032 5.288C216.93 5.16667 216.878 5.008 216.878 4.812C216.878 4.616 216.916 4.39667 216.99 4.154C217.074 3.91133 217.168 3.65933 217.27 3.398C217.382 3.13667 217.476 2.88467 217.55 2.642C217.634 2.39 217.676 2.17067 217.676 1.984C217.676 1.816 217.625 1.68533 217.522 1.592C217.429 1.49867 217.233 1.452 216.934 1.452C216.486 1.452 216.076 1.55 215.702 1.746C215.329 1.942 215.002 2.18933 214.722 2.488C214.452 2.78667 214.242 3.104 214.092 3.44C213.943 3.76667 213.868 4.06533 213.868 4.336C213.868 4.672 213.976 4.96133 214.19 5.204C214.405 5.43733 214.68 5.652 215.016 5.848C215.362 6.044 215.721 6.24 216.094 6.436C216.477 6.632 216.836 6.85133 217.172 7.094C217.518 7.33667 217.798 7.626 218.012 7.962C218.227 8.298 218.334 8.70867 218.334 9.194C218.334 9.67933 218.222 10.1087 217.998 10.482C217.784 10.8553 217.49 11.168 217.116 11.42C216.743 11.6813 216.328 11.8773 215.87 12.008C215.422 12.148 214.965 12.218 214.498 12.218ZM220.804 11.616C220.206 11.616 219.744 11.4527 219.418 11.126C219.1 10.8087 218.942 10.4073 218.942 9.922C218.942 9.51133 219.044 9.07733 219.25 8.62C219.464 8.15333 219.749 7.71933 220.104 7.318C220.458 6.90733 220.85 6.576 221.28 6.324C221.709 6.072 222.138 5.946 222.568 5.946C222.81 5.946 223.039 6.01133 223.254 6.142C223.478 6.26333 223.59 6.51067 223.59 6.884C223.59 7.23867 223.487 7.57 223.282 7.878C223.076 8.186 222.801 8.46133 222.456 8.704C222.11 8.94667 221.728 9.14733 221.308 9.306C220.897 9.45533 220.482 9.55333 220.062 9.6C220.052 9.63733 220.043 9.67933 220.034 9.726C220.034 9.76333 220.034 9.82867 220.034 9.922C220.034 9.96867 220.038 10.0527 220.048 10.174C220.066 10.286 220.108 10.4073 220.174 10.538C220.239 10.6687 220.346 10.7807 220.496 10.874C220.645 10.9673 220.85 11.014 221.112 11.014C221.504 11.014 221.896 10.9067 222.288 10.692C222.689 10.468 223.062 10.174 223.408 9.81C223.762 9.446 224.056 9.04 224.29 8.592L224.57 8.816C224.318 9.376 223.991 9.866 223.59 10.286C223.198 10.706 222.759 11.0327 222.274 11.266C221.798 11.4993 221.308 11.616 220.804 11.616ZM220.216 9.082C220.458 9.054 220.729 8.97 221.028 8.83C221.326 8.69 221.611 8.51267 221.882 8.298C222.162 8.08333 222.39 7.85 222.568 7.598C222.745 7.33667 222.834 7.07533 222.834 6.814C222.834 6.71133 222.815 6.64133 222.778 6.604C222.74 6.56667 222.68 6.548 222.596 6.548C222.381 6.548 222.157 6.62733 221.924 6.786C221.69 6.93533 221.462 7.136 221.238 7.388C221.014 7.63067 220.813 7.90133 220.636 8.2C220.458 8.49867 220.318 8.79267 220.216 9.082ZM224.735 11.658C224.427 11.658 224.161 11.5553 223.937 11.35C223.704 11.1447 223.587 10.8367 223.587 10.426C223.587 10.0993 223.662 9.74467 223.811 9.362C223.961 8.97933 224.166 8.60133 224.427 8.228C224.689 7.85467 224.987 7.51867 225.323 7.22C225.659 6.912 226.019 6.66467 226.401 6.478C226.784 6.29133 227.167 6.198 227.549 6.198C227.951 6.198 228.291 6.30067 228.571 6.506C228.851 6.71133 228.991 6.982 228.991 7.318C228.991 7.57 228.903 7.752 228.725 7.864C228.548 7.976 228.338 8.00867 228.095 7.962C228.114 7.878 228.128 7.794 228.137 7.71C228.156 7.626 228.165 7.53733 228.165 7.444C228.165 7.25733 228.128 7.08933 228.053 6.94C227.979 6.79067 227.82 6.716 227.577 6.716C227.316 6.716 227.05 6.80467 226.779 6.982C226.509 7.15933 226.247 7.39267 225.995 7.682C225.753 7.962 225.533 8.27467 225.337 8.62C225.141 8.956 224.987 9.28733 224.875 9.614C224.763 9.94067 224.707 10.2347 224.707 10.496C224.707 10.7947 224.815 10.944 225.029 10.944C225.244 10.944 225.482 10.8413 225.743 10.636C226.005 10.4213 226.266 10.1553 226.527 9.838C226.798 9.52067 227.055 9.19867 227.297 8.872C227.54 8.536 227.75 8.25133 227.927 8.018C227.955 7.97133 227.993 7.948 228.039 7.948C228.077 7.95733 228.147 7.98067 228.249 8.018C228.361 8.046 228.464 8.09267 228.557 8.158C228.651 8.22333 228.697 8.30733 228.697 8.41C228.697 8.50333 228.655 8.62467 228.571 8.774C228.497 8.914 228.403 9.07267 228.291 9.25C228.189 9.418 228.095 9.59067 228.011 9.768C227.937 9.936 227.899 10.0993 227.899 10.258C227.899 10.3793 227.932 10.496 227.997 10.608C228.063 10.7107 228.17 10.762 228.319 10.762C228.543 10.762 228.856 10.5987 229.257 10.272C229.668 9.936 230.083 9.37133 230.503 8.578L230.769 8.844C230.545 9.348 230.275 9.796 229.957 10.188C229.649 10.5707 229.323 10.8693 228.977 11.084C228.632 11.308 228.282 11.42 227.927 11.42C227.545 11.42 227.26 11.2987 227.073 11.056C226.887 10.8133 226.784 10.552 226.765 10.272C226.765 10.2533 226.765 10.2393 226.765 10.23C226.765 10.2207 226.765 10.2113 226.765 10.202C226.392 10.65 226.047 11.0047 225.729 11.266C225.421 11.5273 225.09 11.658 224.735 11.658ZM237.494 11.434C237.13 11.434 236.859 11.3267 236.682 11.112C236.505 10.8973 236.416 10.6407 236.416 10.342C236.416 10.1273 236.449 9.91267 236.514 9.698C236.579 9.48333 236.645 9.27333 236.71 9.068C236.775 8.85333 236.808 8.662 236.808 8.494C236.808 8.33533 236.775 8.228 236.71 8.172C236.654 8.10667 236.579 8.074 236.486 8.074C236.271 8.074 236.019 8.23733 235.73 8.564C235.45 8.89067 235.1 9.36667 234.68 9.992C234.531 10.216 234.391 10.454 234.26 10.706C234.129 10.9487 234.013 11.154 233.91 11.322C233.826 11.322 233.714 11.308 233.574 11.28C233.443 11.252 233.327 11.21 233.224 11.154C233.121 11.1073 233.07 11.042 233.07 10.958C233.07 10.874 233.117 10.7107 233.21 10.468C233.303 10.2253 233.411 9.94533 233.532 9.628C233.653 9.30133 233.761 8.984 233.854 8.676C233.947 8.35867 233.994 8.09267 233.994 7.878C233.994 7.74733 233.971 7.64467 233.924 7.57C233.877 7.49533 233.803 7.458 233.7 7.458C233.504 7.458 233.266 7.57467 232.986 7.808C232.715 8.04133 232.426 8.34933 232.118 8.732C231.819 9.10533 231.535 9.52533 231.264 9.992C231.003 10.4493 230.788 10.9113 230.62 11.378C230.517 11.378 230.391 11.3547 230.242 11.308C230.093 11.2707 229.962 11.2193 229.85 11.154C229.738 11.098 229.682 11.0467 229.682 11C229.682 10.9907 229.715 10.86 229.78 10.608C229.845 10.3467 229.925 10.0247 230.018 9.642C230.111 9.25933 230.209 8.86733 230.312 8.466C230.415 8.06467 230.503 7.71467 230.578 7.416C230.606 7.31333 230.709 7.22467 230.886 7.15C231.063 7.066 231.217 7.024 231.348 7.024C231.479 7.024 231.591 7.066 231.684 7.15C231.777 7.234 231.824 7.346 231.824 7.486C231.824 7.57933 231.805 7.71467 231.768 7.892C231.731 8.06933 231.684 8.27 231.628 8.494C231.824 8.23267 232.029 7.976 232.244 7.724C232.468 7.46267 232.697 7.22933 232.93 7.024C233.173 6.81867 233.411 6.65533 233.644 6.534C233.887 6.41267 234.125 6.352 234.358 6.352C234.703 6.352 234.937 6.478 235.058 6.73C235.179 6.97267 235.24 7.23867 235.24 7.528C235.24 7.64933 235.231 7.77067 235.212 7.892C235.193 8.004 235.165 8.12067 235.128 8.242C235.1 8.354 235.058 8.48933 235.002 8.648C235.179 8.38667 235.371 8.14867 235.576 7.934C235.791 7.71 236.019 7.53267 236.262 7.402C236.505 7.27133 236.761 7.206 237.032 7.206C237.396 7.206 237.648 7.318 237.788 7.542C237.928 7.75667 237.998 7.99467 237.998 8.256C237.998 8.49867 237.956 8.75533 237.872 9.026C237.797 9.28733 237.718 9.53933 237.634 9.782C237.559 10.0153 237.522 10.216 237.522 10.384C237.522 10.4773 237.545 10.566 237.592 10.65C237.639 10.7247 237.732 10.762 237.872 10.762C238.124 10.762 238.367 10.6453 238.6 10.412C238.833 10.1787 239.048 9.894 239.244 9.558C239.449 9.21267 239.622 8.886 239.762 8.578L240 8.872C239.851 9.25467 239.655 9.64667 239.412 10.048C239.179 10.44 238.903 10.7667 238.586 11.028C238.269 11.2987 237.905 11.434 237.494 11.434ZM240.534 11.42C240.123 11.42 239.815 11.2987 239.61 11.056C239.405 10.8133 239.302 10.5193 239.302 10.174C239.302 9.95933 239.339 9.68867 239.414 9.362C239.489 9.03533 239.591 8.69467 239.722 8.34C239.862 7.976 240.021 7.63533 240.198 7.318C240.375 7.00067 240.567 6.744 240.772 6.548C240.977 6.34267 241.183 6.24 241.388 6.24C241.5 6.24 241.598 6.27267 241.682 6.338C241.766 6.40333 241.808 6.506 241.808 6.646C241.808 6.76733 241.733 6.94933 241.584 7.192C241.444 7.43467 241.276 7.71467 241.08 8.032C240.893 8.34933 240.725 8.68067 240.576 9.026C240.436 9.362 240.366 9.684 240.366 9.992C240.366 10.2907 240.417 10.4913 240.52 10.594C240.632 10.6873 240.791 10.734 240.996 10.734C241.313 10.734 241.659 10.5753 242.032 10.258C242.405 9.94067 242.793 9.38533 243.194 8.592L243.404 8.816C243.077 9.63733 242.662 10.2767 242.158 10.734C241.654 11.1913 241.113 11.42 240.534 11.42ZM242.186 5.106C242.009 5.106 241.845 5.064 241.696 4.98C241.556 4.88667 241.486 4.74667 241.486 4.56C241.486 4.336 241.607 4.14467 241.85 3.986C242.093 3.82733 242.345 3.748 242.606 3.748C242.774 3.748 242.914 3.78533 243.026 3.86C243.147 3.93467 243.208 4.07 243.208 4.266C243.208 4.462 243.101 4.65333 242.886 4.84C242.671 5.01733 242.438 5.106 242.186 5.106Z" fill="white"/>
<line x1="253.5" y1="7.5" x2="282.5" y2="7.5" stroke="white" stroke-linecap="round"/>
<line x1="131.5" y1="7.5" x2="160.5" y2="7.5" stroke="white" stroke-linecap="round"/>
<circle cx="115" cy="94" r="13" fill="white"/>
<path d="M115 81C107.818 81 102 86.8182 102 94C102 101.182 107.818 107 115 107C122.182 107 128 101.182 128 94C128 86.8182 122.182 81 115 81ZM118.732 89.1524C118.732 89.1524 117.357 89.1409 117.011 89.1409C116.491 89.1409 116.144 89.5916 116.144 90.048V91.9604H118.732L118.438 94.5662H116.115V101.222H113.486V94.6009H111.268V91.9316H113.521C113.521 91.9316 113.521 90.9956 113.521 89.4124C113.521 88.0084 115.081 86.772 116.167 86.772C116.329 86.772 118.732 86.7951 118.732 86.7951V89.1524Z" fill="#145FAA"/>
<circle cx="161" cy="94" r="13" fill="white"/>
<path d="M159.163 91.2676V94.0351V96.8085L161.405 95.4218L163.646 94.0351L161.405 92.6542L159.163 91.2676Z" fill="#145FAA"/>
<path d="M161 81C153.818 81 148 86.8182 148 94C148 101.182 153.818 107 161 107C168.182 107 174 101.182 174 94C174 86.8182 168.182 81 161 81ZM168.222 96.4093C168.222 97.8538 167.044 99.0324 165.599 99.0324H156.401C154.956 99.0324 153.778 97.8538 153.778 96.4093V91.5964C153.778 90.152 154.956 88.9733 156.401 88.9733H165.599C167.044 88.9733 168.222 90.152 168.222 91.5964V96.4093Z" fill="#145FAA"/>
<circle cx="207" cy="94" r="13" fill="white"/>
<path d="M210.917 94.4975C209.733 93.7926 208.404 93.3593 206.96 93.2033C205.636 93.0589 204.25 93.1571 202.84 93.4922C202.54 93.5615 202.355 93.862 202.424 94.1624C202.493 94.4629 202.794 94.6477 203.094 94.5784C205.758 93.9486 208.335 94.2606 210.34 95.4566C210.432 95.5086 210.53 95.5375 210.623 95.5375C210.813 95.5375 210.998 95.4393 211.102 95.266C211.27 95.0002 211.183 94.6593 210.917 94.4975Z" fill="#145FAA"/>
<path d="M211.836 91.9953C210.415 91.2789 208.791 90.8224 207.144 90.6664C205.498 90.5104 203.816 90.6549 202.285 91.0882C201.921 91.1922 201.713 91.5678 201.812 91.9318C201.916 92.2958 202.291 92.5038 202.655 92.4055C205.434 91.6198 208.641 91.9202 211.218 93.2202C211.316 93.2722 211.42 93.2953 211.524 93.2953C211.772 93.2953 212.015 93.1567 212.136 92.9198C212.31 92.5731 212.171 92.1629 211.836 91.9953Z" fill="#145FAA"/>
<path d="M210.045 96.5817C207.971 95.4609 205.873 95.2297 203.042 95.8017C202.805 95.848 202.655 96.0791 202.701 96.316C202.748 96.5529 202.979 96.7031 203.216 96.6569C205.868 96.1195 207.728 96.3217 209.635 97.3502C209.698 97.3849 209.773 97.4022 209.843 97.4022C209.999 97.4022 210.149 97.3213 210.224 97.1711C210.34 96.9573 210.259 96.6973 210.045 96.5817Z" fill="#145FAA"/>
<path d="M207 81C199.818 81 194 86.8182 194 94C194 101.182 199.818 107 207 107C214.182 107 220 101.182 220 94C220 86.8182 214.182 81 207 81ZM207 101.222C203.013 101.222 199.778 97.9867 199.778 94C199.778 90.0133 203.013 86.7778 207 86.7778C210.987 86.7778 214.222 90.0133 214.222 94C214.222 97.9867 210.987 101.222 207 101.222Z" fill="#145FAA"/>
<circle cx="253" cy="94" r="13" fill="white"/>
<path d="M253 96.6034C254.434 96.6034 255.603 95.4362 255.603 94.0009C255.603 93.4344 255.418 92.9112 255.111 92.4839C254.638 91.8283 253.869 91.3984 253.001 91.3984C252.132 91.3984 251.364 91.8278 250.89 92.4834C250.582 92.9107 250.399 93.4338 250.398 94.0004C250.396 95.4357 251.565 96.6034 253 96.6034Z" fill="#145FAA"/>
<path d="M258.683 90.8167V88.6352V88.3105L258.356 88.3116L256.176 88.3184L256.184 90.8251L258.683 90.8167Z" fill="#145FAA"/>
<path d="M253 81C245.832 81 240 86.8318 240 94C240 101.168 245.832 107 253 107C260.168 107 266 101.168 266 94C266 86.8318 260.169 81 253 81ZM260.393 92.483V98.5363C260.393 100.113 259.111 101.394 257.536 101.394H248.464C246.888 101.394 245.607 100.113 245.607 98.5363V92.483V89.4647C245.607 87.8885 246.888 86.6072 248.464 86.6072H257.535C259.111 86.6072 260.393 87.8885 260.393 89.4647V92.483Z" fill="#145FAA"/>
<path d="M257.044 93.9994C257.044 96.2286 255.23 98.0435 253 98.0435C250.77 98.0435 248.956 96.2286 248.956 93.9994C248.956 93.4632 249.063 92.9506 249.254 92.4824H247.047V98.5357C247.047 99.3181 247.682 99.9517 248.464 99.9517H257.535C258.315 99.9517 258.952 99.3181 258.952 98.5357V92.4824H256.744C256.936 92.9506 257.044 93.4632 257.044 93.9994Z" fill="#145FAA"/>
<circle cx="299" cy="94" r="13" fill="white"/>
<path d="M301.224 95.2715C301.08 95.2946 300.988 95.439 300.843 95.6644C300.693 95.907 300.52 96.1844 300.184 96.2768C300.005 96.3288 299.67 96.3288 298.879 95.7626C298.411 95.4275 297.856 94.9421 297.359 94.4337C296.562 93.619 296.55 93.4168 296.55 93.3417C296.533 93.0066 296.799 92.7292 297.036 92.4866C297.18 92.3421 297.324 92.1919 297.371 92.0648C297.388 91.9723 297.267 91.5563 296.937 90.967C296.608 90.3777 296.313 90.0541 296.221 90.0195C296.209 90.0137 296.186 90.0137 296.163 90.0137C295.996 90.0137 295.585 90.1119 295.227 90.4412C294.857 90.7879 294.488 91.4581 294.828 92.6715C295.458 94.9306 297.44 96.7564 300.41 97.8021C301.196 98.0795 301.843 98.0795 302.322 97.7906C302.992 97.3861 303.195 96.5368 303.247 96.1901C303.252 96.1612 303.241 96.1324 303.224 96.1092C302.825 95.6932 301.588 95.2079 301.224 95.2715Z" fill="#145FAA"/>
<path d="M299 81C291.818 81 286 86.8182 286 94C286 101.182 291.818 107 299 107C306.182 107 312 101.182 312 94C312 86.8182 306.182 81 299 81ZM299 101.222C297.469 101.222 296.007 100.748 294.771 99.8529L294.672 99.7836L292.367 100.691L293.182 98.2756L293.118 98.1831C292.24 96.9524 291.778 95.508 291.778 94C291.778 90.0191 295.019 86.7778 299 86.7778C302.981 86.7778 306.222 90.0191 306.222 94C306.222 97.9809 302.981 101.222 299 101.222Z" fill="#145FAA"/>
</svg>
