<svg width="40" height="40" viewBox="0 0 40 40" fill="none" xmlns="http://www.w3.org/2000/svg">
<path d="M34.2262 21.353H31.1328C31.4481 22.2163 31.6204 23.148 31.6204 24.119V35.8104C31.6204 36.2152 31.5499 36.6038 31.4217 36.9652H36.5359C38.4462 36.9652 40.0004 35.411 40.0004 33.5007V27.1272C40.0005 23.9433 37.4101 21.353 34.2262 21.353Z" fill="#EA412C"/>
<path d="M8.38009 24.119C8.38009 23.1479 8.55236 22.2163 8.86767 21.353H5.77423C2.59032 21.353 0 23.9433 0 27.1273V33.5008C0 35.4111 1.55414 36.9653 3.46454 36.9653H8.57877C8.45056 36.6038 8.38009 36.2152 8.38009 35.8104V24.119Z" fill="#EA412C"/>
<path d="M23.5357 18.3452H16.4637C13.2798 18.3452 10.6895 20.9355 10.6895 24.1194V35.8109C10.6895 36.4486 11.2065 36.9657 11.8443 36.9657H28.1551C28.7929 36.9657 29.3099 36.4487 29.3099 35.8109V24.1194C29.3099 20.9355 26.7196 18.3452 23.5357 18.3452Z" fill="#EA412C"/>
<path d="M19.9999 3.03418C16.1708 3.03418 13.0557 6.14934 13.0557 9.97849C13.0557 12.5758 14.4892 14.8441 16.6062 16.0351C17.6104 16.5999 18.768 16.9227 19.9999 16.9227C21.2318 16.9227 22.3894 16.5999 23.3936 16.0351C25.5107 14.8441 26.9441 12.5757 26.9441 9.97849C26.9441 6.14942 23.829 3.03418 19.9999 3.03418Z" fill="#EA412C"/>
<path d="M7.80567 9.50684C4.942 9.50684 2.6123 11.8365 2.6123 14.7002C2.6123 17.5639 4.942 19.8936 7.80567 19.8936C8.53208 19.8936 9.2238 19.7431 9.85216 19.4726C10.9386 19.0049 11.8344 18.1769 12.3887 17.1398C12.7777 16.4119 12.999 15.5815 12.999 14.7002C12.999 11.8366 10.6694 9.50684 7.80567 9.50684Z" fill="#EA412C"/>
<path d="M32.1943 9.50684C29.3307 9.50684 27.001 11.8365 27.001 14.7002C27.001 15.5816 27.2223 16.412 27.6114 17.1398C28.1657 18.177 29.0614 19.005 30.1479 19.4726C30.7762 19.7431 31.4679 19.8936 32.1943 19.8936C35.058 19.8936 37.3877 17.5639 37.3877 14.7002C37.3877 11.8365 35.058 9.50684 32.1943 9.50684Z" fill="#EA412C"/>
</svg>
