<svg width="16" height="16" viewBox="0 0 16 16" fill="none" xmlns="http://www.w3.org/2000/svg">
<g clip-path="url(#clip0_117:8479)">
<rect width="16" height="16" transform="translate(0 -0.000976562)" fill="white"/>
<g clip-path="url(#clip1_117:8479)">
<path d="M8.76147 6.16209C8.85712 6.16209 8.94931 6.17746 9.0381 6.20308L10.6945 4.17277C10.8003 4.04299 10.9967 4.01909 11.1248 4.12837C11.2494 4.23253 11.2665 4.41866 11.1623 4.54502L9.52476 6.55313C9.63575 6.70681 9.70235 6.89637 9.70235 7.10128C9.70235 7.48207 9.47353 7.81163 9.14739 7.95847H15.573C15.8086 7.95847 15.9999 7.76723 15.9999 7.53157V2.12709C15.9999 1.89144 15.8086 1.7002 15.573 1.7002H7.41078C7.17514 1.7002 6.98389 1.89144 6.98389 2.12709V5.67544L7.3698 6.1638H8.76147V6.16209Z" fill="#EA412C"/>
<path d="M3.43704 3.82915C4.40274 3.82915 5.18559 3.04629 5.18559 2.08059C5.18559 1.11489 4.40274 0.332031 3.43704 0.332031C2.47133 0.332031 1.68848 1.11489 1.68848 2.08059C1.68848 3.04629 2.47133 3.82915 3.43704 3.82915Z" fill="#EA412C"/>
<path d="M5.23031 15.2413C5.23031 15.477 5.03906 15.6682 4.80341 15.6682H4.08623C3.85059 15.6682 3.65934 15.477 3.65934 15.2413V11.6622C3.65934 11.5359 3.55688 11.4334 3.43052 11.4334C3.30416 11.4334 3.20171 11.5359 3.20171 11.6622V15.2242C3.20171 15.4684 3.00192 15.6682 2.75774 15.6682H2.05592C1.82028 15.6682 1.62903 15.477 1.62903 15.2413L1.62561 6.60096C1.62561 6.48485 1.5317 6.38924 1.41387 6.38924C1.29776 6.38924 1.20213 6.48316 1.20213 6.60096V9.92391C1.20213 10.1596 1.01089 10.3508 0.77524 10.3508H0.426894C0.191249 10.3508 0 10.1596 0 9.92391V5.36809C0 4.82679 0.438847 4.38965 0.978442 4.38965H4.8666C5.28323 4.38965 5.67769 4.5809 5.93725 4.90704L6.98227 6.22529L7.20254 6.50363C7.20254 6.50363 8.19294 6.50363 8.76327 6.50534C8.99891 6.50534 9.19016 6.69659 9.19016 6.93223V7.27204C9.19016 7.50769 8.99891 7.69893 8.76327 7.69893H6.91569C6.73298 7.69893 6.56051 7.61526 6.44781 7.47181L5.66916 6.47117C5.62988 6.41994 5.5667 6.3892 5.50181 6.3892H5.44888C5.33276 6.3892 5.23716 6.48312 5.23716 6.60093L5.23031 15.2413Z" fill="#EA412C"/>
</g>
</g>
<defs>
<clipPath id="clip0_117:8479">
<rect width="16" height="16" fill="white" transform="translate(0 -0.000976562)"/>
</clipPath>
<clipPath id="clip1_117:8479">
<rect width="16" height="16" fill="white" transform="translate(0 -0.000976562)"/>
</clipPath>
</defs>
</svg>
