<svg width="26" height="26" viewBox="0 0 26 26" fill="none" xmlns="http://www.w3.org/2000/svg">
<circle cx="13" cy="13" r="13" fill="white"/>
<path fill-rule="evenodd" clip-rule="evenodd" d="M16.3759 8.658L15.1523 8.65881C14.1927 8.65881 14.0067 9.11462 14.0067 9.78331V11.2588H16.2955L15.9973 13.5704H14.0067V19.5H11.6204V13.5704H9.62488V11.2588H11.6204V9.555C11.6204 7.57656 12.8286 6.5 14.5925 6.5C15.4375 6.5 16.1639 6.56256 16.3759 6.591V8.658ZM13 0C5.82075 0 0 5.81994 0 13C0 20.1793 5.82075 26 13 26C20.1801 26 26 20.1793 26 13C26 5.81994 20.1801 0 13 0Z" fill="#3B5998"/>
</svg>
