<svg width="26" height="26" viewBox="0 0 26 26" fill="none" xmlns="http://www.w3.org/2000/svg">
<circle cx="13" cy="13" r="13" fill="white"/>
<path d="M15.2244 14.2715C15.08 14.2946 14.9875 14.439 14.8431 14.6644C14.6929 14.907 14.5195 15.1844 14.1844 15.2768C14.0053 15.3288 13.6702 15.3288 12.8786 14.7626C12.4106 14.4275 11.856 13.9421 11.3591 13.4337C10.5617 12.619 10.5502 12.4168 10.5502 12.3417C10.5329 12.0066 10.7986 11.7292 11.0355 11.4866C11.18 11.3421 11.3244 11.1919 11.3706 11.0648C11.388 10.9723 11.2666 10.5563 10.9373 9.96701C10.608 9.37767 10.3133 9.05412 10.2209 9.01945C10.2093 9.01367 10.1862 9.01367 10.1631 9.01367C9.99552 9.01367 9.5853 9.11189 9.22708 9.44123C8.8573 9.7879 8.48752 10.4581 8.82841 11.6715C9.45819 13.9306 11.44 15.7564 14.4097 16.8021C15.1955 17.0795 15.8426 17.0795 16.3222 16.7906C16.9924 16.3861 17.1946 15.5368 17.2466 15.1901C17.2524 15.1612 17.2409 15.1324 17.2235 15.1092C16.8249 14.6932 15.5884 14.2079 15.2244 14.2715Z" fill="#145FAA"/>
<path d="M13 0C5.81822 0 0 5.81822 0 13C0 20.1818 5.81822 26 13 26C20.1818 26 26 20.1818 26 13C26 5.81822 20.1818 0 13 0ZM13 20.2222C11.4689 20.2222 10.0071 19.7484 8.77067 18.8529L8.67244 18.7836L6.36711 19.6907L7.18178 17.2756L7.11822 17.1831C6.24 15.9524 5.77778 14.508 5.77778 13C5.77778 9.01911 9.01911 5.77778 13 5.77778C16.9809 5.77778 20.2222 9.01911 20.2222 13C20.2222 16.9809 16.9809 20.2222 13 20.2222Z" fill="#145FAA"/>
</svg>
