<svg width="40" height="40" viewBox="0 0 40 40" fill="none" xmlns="http://www.w3.org/2000/svg">
<g clip-path="url(#clip0_112_2514)">
<path d="M20.417 3.33333H18.5837C18.0337 1.41667 16.267 0 14.167 0C12.067 0 10.3003 1.41667 9.75033 3.33333H7.91699C7.23366 3.33333 6.66699 3.9 6.66699 4.58333V7.08333C6.66699 8.68333 7.98366 10 9.58366 10H18.7503C20.3503 10 21.667 8.68333 21.667 7.08333V4.58333C21.667 3.9 21.1003 3.33333 20.417 3.33333Z" fill="#145FAA"/>
<path d="M23.75 5H23.3333V7.08333C23.3333 9.61667 21.2833 11.6667 18.75 11.6667H9.58333C7.05 11.6667 5 9.61667 5 7.08333V5H4.58333C2.05 5 0 7.05 0 9.58333V30.4167C0 32.95 2.05 35 4.58333 35H15.5667C14.7333 33.2167 14.2333 31.25 14.1833 29.1667H6.25C5.56667 29.1667 5 28.6 5 27.9167C5 27.2333 5.56667 26.6667 6.25 26.6667H14.3167C14.4667 25.65 14.7167 24.6833 15.05 23.75H6.25C5.56667 23.75 5 23.1833 5 22.5C5 21.8167 5.56667 21.25 6.25 21.25H16.25C16.9 20.1833 17.6667 19.2 18.5667 18.3333H6.25C5.56667 18.3333 5 17.7667 5 17.0833C5 16.4 5.56667 15.8333 6.25 15.8333H21.9833C23.9 14.8333 26.05 14.2333 28.3333 14.1833V9.58333C28.3333 7.05 26.2833 5 23.75 5Z" fill="#145FAA"/>
<path d="M28.75 17.5C22.5467 17.5 17.5 22.5467 17.5 28.75C17.5 34.9533 22.5467 40 28.75 40C34.9533 40 40 34.9533 40 28.75C40 22.5467 34.9533 17.5 28.75 17.5ZM34.17 26.515L28.3367 33.1817C28.0333 33.5283 27.6 33.735 27.1383 33.75C27.12 33.75 27.1017 33.75 27.0833 33.75C26.6417 33.75 26.2183 33.575 25.905 33.2617L22.5717 29.9283C21.92 29.2767 21.92 28.2233 22.5717 27.5717C23.2233 26.92 24.2767 26.92 24.9283 27.5717L27.0017 29.645L31.6617 24.3183C32.2683 23.6283 33.32 23.555 34.0133 24.1617C34.7067 24.7683 34.7767 25.8217 34.17 26.515Z" fill="#145FAA"/>
</g>
<defs>
<clipPath id="clip0_112_2514">
<rect width="40" height="40" fill="white"/>
</clipPath>
</defs>
</svg>
