<svg width="26" height="26" viewBox="0 0 26 26" fill="none" xmlns="http://www.w3.org/2000/svg">
<circle cx="13" cy="13" r="13" fill="white"/>
<path d="M12.9995 15.6034C14.4338 15.6034 15.6031 14.4362 15.6031 13.0009C15.6031 12.4344 15.4177 11.9112 15.1109 11.4839C14.638 10.8283 13.8693 10.3984 13.0011 10.3984C12.1324 10.3984 11.3642 10.8278 10.8903 11.4834C10.5824 11.9107 10.3986 12.4338 10.3981 13.0004C10.3965 14.4357 11.5647 15.6034 12.9995 15.6034Z" fill="#145FAA"/>
<path d="M18.6826 9.81671V7.63521V7.31055L18.3563 7.31159L16.1759 7.3184L16.1843 9.82509L18.6826 9.81671Z" fill="#145FAA"/>
<path d="M13 0C5.83183 0 0 5.83183 0 13C0 20.1676 5.83183 26 13 26C20.1676 26 26 20.1676 26 13C26 5.83183 20.1687 0 13 0ZM20.3933 11.483V17.5363C20.3933 19.113 19.1115 20.3944 17.5358 20.3944H8.46419C6.88802 20.3944 5.60666 19.113 5.60666 17.5363V11.483V8.46471C5.60666 6.88854 6.88802 5.60719 8.46419 5.60719H17.5353C19.1115 5.60719 20.3933 6.88854 20.3933 8.46471V11.483Z" fill="#145FAA"/>
<path d="M17.0441 12.9994C17.0441 15.2286 15.2302 17.0435 13 17.0435C10.7698 17.0435 8.9564 15.2286 8.9564 12.9994C8.9564 12.4632 9.06322 11.9506 9.25383 11.4824H7.04667V17.5357C7.04667 18.3181 7.68185 18.9517 8.46365 18.9517H17.5347C18.3155 18.9517 18.9517 18.3181 18.9517 17.5357V11.4824H16.7435C16.9357 11.9506 17.0441 12.4632 17.0441 12.9994Z" fill="#145FAA"/>
</svg>
