<svg width="36" height="36" viewBox="0 0 36 36" fill="none" xmlns="http://www.w3.org/2000/svg">
<path d="M30.8032 19.2188H28.0191C28.3029 19.9957 28.458 20.8342 28.458 21.7081V32.2304C28.458 32.5947 28.3945 32.9445 28.2791 33.2697H32.8819C34.6012 33.2697 35.9999 31.8709 35.9999 30.1517V24.4155C36 21.55 33.6687 19.2188 30.8032 19.2188Z" fill="#EA412C"/>
<path d="M7.54208 21.7081C7.54208 20.8341 7.69712 19.9957 7.98091 19.2188H5.19681C2.33129 19.2188 0 21.55 0 24.4156V30.1517C0 31.871 1.39873 33.2698 3.11808 33.2698H7.72089C7.60551 32.9444 7.54208 32.5947 7.54208 32.2304V21.7081Z" fill="#EA412C"/>
<path d="M21.1825 16.5098H14.8176C11.9521 16.5098 9.62082 18.8411 9.62082 21.7066V32.2289C9.62082 32.8028 10.0861 33.2682 10.6602 33.2682H25.3399C25.9139 33.2682 26.3793 32.8029 26.3793 32.2289V21.7066C26.3793 18.8411 24.048 16.5098 21.1825 16.5098Z" fill="#EA412C"/>
<path d="M18 2.73047C14.5539 2.73047 11.7502 5.53411 11.7502 8.98035C11.7502 11.3179 13.0404 13.3594 14.9457 14.4313C15.8494 14.9396 16.8913 15.2302 18 15.2302C19.1087 15.2302 20.1506 14.9396 21.0543 14.4313C22.9597 13.3594 24.2498 11.3178 24.2498 8.98035C24.2498 5.53418 21.4462 2.73047 18 2.73047Z" fill="#EA412C"/>
<path d="M7.0255 8.55664C4.44819 8.55664 2.35147 10.6534 2.35147 13.2307C2.35147 15.808 4.44819 17.9047 7.0255 17.9047C7.67927 17.9047 8.30182 17.7693 8.86734 17.5259C9.84511 17.1049 10.6513 16.3597 11.1502 15.4263C11.5003 14.7712 11.6995 14.0239 11.6995 13.2307C11.6995 10.6534 9.60281 8.55664 7.0255 8.55664Z" fill="#EA412C"/>
<path d="M28.9746 8.55664C26.3973 8.55664 24.3006 10.6534 24.3006 13.2307C24.3006 14.0239 24.4998 14.7713 24.85 15.4263C25.3488 16.3598 26.155 17.105 27.1328 17.5259C27.6983 17.7693 28.3209 17.9047 28.9746 17.9047C31.5519 17.9047 33.6487 15.808 33.6487 13.2307C33.6487 10.6534 31.5519 8.55664 28.9746 8.55664Z" fill="#EA412C"/>
</svg>
