<svg width="16" height="16" viewBox="0 0 16 16" fill="none" xmlns="http://www.w3.org/2000/svg">
<path d="M13.0376 10.6694L11.4179 9.53784C11.2061 9.39014 10.9586 9.31226 10.7019 9.31226C10.2937 9.31226 9.91048 9.51245 9.67708 9.84741L9.30111 10.3862C8.67098 9.96362 7.96786 9.37354 7.29757 8.70337C6.6274 8.0332 6.03744 7.33008 5.61495 6.69995L6.15352 6.32397C6.42806 6.13281 6.61141 5.84644 6.66964 5.51782C6.72774 5.18945 6.6545 4.85767 6.4631 4.58301L5.33175 2.96338C5.09518 2.625 4.71346 2.42285 4.31051 2.42285C4.17086 2.42285 4.0339 2.44751 3.90352 2.49561C3.75545 2.55029 3.61751 2.61743 3.48226 2.70239L3.25863 2.85986C3.20272 2.90332 3.15072 2.95093 3.10091 3.00073C2.82809 3.27344 2.63448 3.61865 2.52523 4.02686C2.05904 5.77441 3.21395 8.41699 5.39901 10.6021C7.23397 12.437 9.43844 13.5769 11.1519 13.5771H11.1521C11.4455 13.5771 11.7221 13.543 11.9743 13.4756C12.3825 13.3665 12.7277 13.1729 13.0007 12.8999C13.0503 12.8503 13.0976 12.7983 13.1484 12.7327L13.306 12.5078C13.383 12.3848 13.45 12.2468 13.5055 12.0977C13.696 11.5825 13.5036 10.9951 13.0376 10.6694Z" fill="#EA412C"/>
</svg>
