<svg width="26" height="26" viewBox="0 0 26 26" fill="none" xmlns="http://www.w3.org/2000/svg">
<circle cx="13" cy="13" r="13" fill="white"/>
<path d="M11.1628 10.2676V13.0351V15.8085L13.4046 14.4218L15.6464 13.0351L13.4046 11.6542L11.1628 10.2676Z" fill="#145FAA"/>
<path d="M13 0C5.81822 0 0 5.81822 0 13C0 20.1818 5.81822 26 13 26C20.1818 26 26 20.1818 26 13C26 5.81822 20.1818 0 13 0ZM20.2222 15.4093C20.2222 16.8538 19.0436 18.0324 17.5991 18.0324H8.40089C6.95644 18.0324 5.77778 16.8538 5.77778 15.4093V10.5964C5.77778 9.152 6.95644 7.97333 8.40089 7.97333H17.5991C19.0436 7.97333 20.2222 9.152 20.2222 10.5964V15.4093Z" fill="#145FAA"/>
</svg>
