<svg width="8" height="8" viewBox="0 0 8 8" fill="none" xmlns="http://www.w3.org/2000/svg">
<g clip-path="url(#clip0_159_4700)">
<g clip-path="url(#clip1_159_4700)">
<path d="M4 6.3635C3.95216 6.36378 3.90474 6.35461 3.86045 6.33652C3.81616 6.31843 3.77588 6.29178 3.74191 6.25809L0.106903 2.62307C0.038454 2.55463 -7.21223e-10 2.46179 0 2.36499C7.21223e-10 2.26819 0.038454 2.17535 0.106903 2.1069C0.175351 2.03845 0.268187 2 0.364988 2C0.461789 2 0.554626 2.03845 0.623074 2.1069L4 5.48746L7.37693 2.1069C7.44537 2.03845 7.53821 2 7.63501 2C7.73181 2 7.82465 2.03845 7.8931 2.1069C7.96155 2.17535 8 2.26819 8 2.36499C8 2.46179 7.96155 2.55463 7.8931 2.62307L4.25809 6.25809C4.22412 6.29178 4.18384 6.31843 4.13955 6.33652C4.09526 6.35461 4.04784 6.36378 4 6.3635Z" fill="#EA412C"/>
</g>
</g>
<defs>
<clipPath id="clip0_159_4700">
<rect width="8" height="8" fill="white" transform="translate(8) rotate(90)"/>
</clipPath>
<clipPath id="clip1_159_4700">
<rect width="8" height="8" fill="white"/>
</clipPath>
</defs>
</svg>
