<svg width="20" height="20" viewBox="0 0 20 20" fill="none" xmlns="http://www.w3.org/2000/svg">
<path d="M8.07968 11.04C8.01968 11.04 6.69969 11.04 6.09969 11.04C5.77969 11.04 5.67969 10.92 5.67969 10.62C5.67969 9.82002 5.67969 9.00002 5.67969 8.20002C5.67969 7.88002 5.79969 7.78002 6.09969 7.78002H8.07968C8.07968 7.72002 8.07968 6.56002 8.07968 6.02002C8.07968 5.22002 8.21968 4.46002 8.61968 3.76002C9.03968 3.04002 9.63968 2.56002 10.3997 2.28002C10.8997 2.10002 11.3997 2.02002 11.9397 2.02002H13.8997C14.1797 2.02002 14.2997 2.14002 14.2997 2.42002V4.70002C14.2997 4.98002 14.1797 5.10002 13.8997 5.10002C13.3597 5.10002 12.8197 5.10002 12.2797 5.12002C11.7397 5.12002 11.4597 5.38002 11.4597 5.94002C11.4397 6.54002 11.4597 7.12002 11.4597 7.74002H13.7797C14.0997 7.74002 14.2197 7.86002 14.2197 8.18002V10.6C14.2197 10.92 14.1197 11.02 13.7797 11.02C13.0597 11.02 11.5197 11.02 11.4597 11.02V17.54C11.4597 17.88 11.3597 18 10.9997 18C10.1597 18 9.33968 18 8.49968 18C8.19968 18 8.07968 17.88 8.07968 17.58C8.07968 15.48 8.07968 11.1 8.07968 11.04Z" fill="white"/>
</svg>
