<svg width="16" height="16" viewBox="0 0 16 16" fill="none" xmlns="http://www.w3.org/2000/svg">
<g clip-path="url(#clip0_138_8464)">
<path d="M0.000738906 7.2H10.0135L8.97353 6.168C8.82703 6.01777 8.74543 5.81599 8.74631 5.60615C8.74719 5.39631 8.83048 5.19522 8.97822 5.04622C9.12597 4.89721 9.32635 4.81222 9.53617 4.80956C9.74599 4.8069 9.94845 4.88679 10.0999 5.032L12.5183 7.432C12.5933 7.50637 12.6528 7.59485 12.6934 7.69234C12.7341 7.78983 12.755 7.89439 12.755 8C12.755 8.10561 12.7341 8.21017 12.6934 8.30766C12.6528 8.40515 12.5933 8.49363 12.5183 8.568L10.0999 10.968C9.94845 11.1132 9.74599 11.1931 9.53617 11.1904C9.32635 11.1878 9.12597 11.1028 8.97822 10.9538C8.83048 10.8048 8.74719 10.6037 8.74631 10.3939C8.74543 10.184 8.82703 9.98223 8.97353 9.832L10.0135 8.8H-6.10352e-05C0.205178 10.8421 1.18742 12.7272 2.74351 14.0655C4.2996 15.4037 6.31051 16.0927 8.36033 15.99C10.4102 15.8872 12.3421 15.0006 13.7565 13.5134C15.171 12.0263 15.9598 10.0524 15.9598 8C15.9598 5.94761 15.171 3.97371 13.7565 2.48657C12.3421 0.999423 10.4102 0.112788 8.36033 0.0100399C6.31051 -0.0927087 4.2996 0.596289 2.74351 1.93453C1.18742 3.27278 0.205178 5.15789 -6.10352e-05 7.2H0.000738906Z" fill="#EA412C"/>
</g>
<defs>
<clipPath id="clip0_138_8464">
<rect width="16" height="16" fill="white"/>
</clipPath>
</defs>
</svg>
