<svg width="36" height="36" viewBox="0 0 36 36" fill="none" xmlns="http://www.w3.org/2000/svg">
<g clip-path="url(#clip0_117_14080)">
<path d="M31.991 6.64722C31.991 9.0708 30.0264 11.0354 27.6031 11.0354C25.1795 11.0354 23.2148 9.0708 23.2148 6.64722C23.2148 4.22391 25.1795 2.25928 27.6031 2.25928C30.0264 2.25928 31.991 4.22391 31.991 6.64722Z" fill="#EA412C"/>
<path d="M20.0075 12.3313L17.9247 9.20819V3.87927C17.9247 1.75287 16.2098 0 14.0463 0H3.87927C1.72678 0 0 1.74243 0 3.87927V10.092C0 12.2239 1.72046 13.971 3.87927 13.971H19.1299C19.9701 13.971 20.4744 13.0317 20.0075 12.3313ZM8.93298 10.0173H5.60303C5.03503 10.0173 4.54642 9.58035 4.52005 9.01291C4.49231 8.40701 4.97406 7.90796 5.57364 7.90796H8.96292C9.5614 7.90796 10.0443 8.40701 10.0162 9.01263C9.99014 9.58035 9.50125 10.0173 8.93298 10.0173ZM12.3519 6.06308H5.60358C5.03586 6.06308 4.54752 5.6272 4.52032 5.0603C4.49121 4.45441 4.97351 3.9537 5.57364 3.9537H12.322C12.8903 3.9537 13.3792 4.39069 13.4052 4.9584C13.4333 5.56403 12.9504 6.06308 12.3519 6.06308Z" fill="#EA412C"/>
<path d="M8.19031 26.167C3.64774 26.1827 0 29.9329 0 34.4755V34.7067C0 35.4211 0.578979 36.0001 1.29337 36.0001H15.1452C15.8596 36.0001 16.4386 35.4211 16.4386 34.7067V34.3862C16.4386 29.837 12.743 26.1511 8.19031 26.167Z" fill="#EA412C"/>
<path d="M13.3953 20.9913C13.3953 23.8497 11.0782 26.167 8.2196 26.167C5.36124 26.167 3.04395 23.8497 3.04395 20.9913C3.04395 18.133 5.36124 15.8157 8.2196 15.8157C11.0782 15.8157 13.3953 18.133 13.3953 20.9913Z" fill="#EA412C"/>
<path d="M34.2587 16.9452H20.9463C21.3388 13.6175 24.1689 11.0354 27.6029 11.0354C31.0361 11.0354 33.8662 13.6175 34.2587 16.9452Z" fill="#EA412C"/>
<path d="M34.9451 19.125C35.5276 19.125 35.9998 19.5971 35.9998 20.1797V32.6863C35.9998 33.2853 35.4999 33.7684 34.8937 33.7396C34.3271 33.7126 33.8904 33.224 33.8904 32.656V31.481H18.1313C17.4224 29.0679 15.8552 27.0176 13.7832 25.688C14.856 24.4188 15.5045 22.7791 15.5045 20.991C15.5045 20.3464 15.4199 19.7213 15.2617 19.125H34.9451Z" fill="#EA412C"/>
</g>
<defs>
<clipPath id="clip0_117_14080">
<rect width="36" height="36" fill="white"/>
</clipPath>
</defs>
</svg>
