<svg width="30" height="30" viewBox="0 0 30 30" fill="none" xmlns="http://www.w3.org/2000/svg">
<g clip-path="url(#clip0_138:10862)">
<path d="M26.3335 21.006L22.6893 18.4599C22.2128 18.1276 21.6558 17.9523 21.0782 17.9523C20.1597 17.9523 19.2976 18.4028 18.7724 19.1564L17.9265 20.3688C16.5087 19.4179 14.9266 18.0902 13.4185 16.5823C11.9106 15.0745 10.5832 13.4924 9.6326 12.0746L10.8444 11.2287C11.4621 10.7986 11.8746 10.1542 12.0056 9.41486C12.1364 8.67603 11.9716 7.9295 11.5409 7.31152L8.99539 3.66736C8.46311 2.90601 7.60425 2.45117 6.6976 2.45117C6.38339 2.45117 6.07523 2.50665 5.78189 2.61487C5.44873 2.73792 5.13837 2.88898 4.83405 3.08014L4.33087 3.43445C4.20508 3.53223 4.08808 3.63934 3.97602 3.7514C3.36215 4.36499 2.92655 5.14172 2.68073 6.06018C1.63181 9.99219 4.23035 15.938 9.14673 20.8544C13.2754 24.983 18.2354 27.5478 22.0908 27.5483H22.0911C22.7514 27.5483 23.3738 27.4714 23.9412 27.3198C24.8597 27.0743 25.6364 26.6387 26.2505 26.0245C26.362 25.913 26.4686 25.796 26.5829 25.6483L26.9374 25.1423C27.1108 24.8655 27.2615 24.5551 27.3862 24.2195C27.815 23.0604 27.3821 21.7388 26.3335 21.006Z" fill="#EA412C"/>
</g>
<defs>
<clipPath id="clip0_138:10862">
<rect width="30" height="30" fill="white"/>
</clipPath>
</defs>
</svg>
