<svg width="16" height="16" viewBox="0 0 16 16" fill="none" xmlns="http://www.w3.org/2000/svg">
<g clip-path="url(#clip0_117:8521)">
<rect width="16" height="16" transform="translate(0 -0.000976562)" fill="white"/>
<g clip-path="url(#clip1_117:8521)">
<path d="M4.6875 1.68445C5.53316 2.6906 6.5625 4.14991 6.5625 5.15573C6.5625 5.76045 5.98481 6.47545 5.76141 6.69976C5.57922 6.88332 5.58012 7.17995 5.76325 7.3626C5.94656 7.54501 6.24206 7.54526 6.42519 7.36213C6.53506 7.25226 7.50003 6.25573 7.50003 5.15573C7.50003 3.1457 4.855 0.44129 4.55084 0.137446C4.42166 0.00775854 4.21991 -0.0389602 4.03981 0.0355398C3.86328 0.10854 3.75 0.281571 3.75 0.468227V6.94638C3.35713 6.70851 2.8735 6.56198 2.34375 6.56198C1.05103 6.56198 0 7.40288 0 8.43698C0 9.47107 1.05103 10.312 2.34375 10.312C3.63647 10.312 4.6875 9.47107 4.6875 8.43698V1.68445Z" fill="#EA412C"/>
<path d="M15.7938 2.94804C15.6531 2.8637 15.4938 2.84492 15.3438 2.91057L8.78125 5.72307C8.6125 5.7981 8.5 5.96682 8.5 6.15435V8.92932L16 5.64807V3.34185C16 3.18242 15.925 3.04185 15.7938 2.94804Z" fill="#EA412C"/>
<path d="M8.5 12.6332C8.10713 12.3953 7.6235 12.2488 7.09375 12.2488C5.80103 12.2488 4.75 13.0897 4.75 14.1238C4.75 15.1579 5.80103 15.9988 7.09375 15.9988C8.38647 15.9988 9.4375 15.1579 9.4375 14.1238V9.54297L8.5 9.95313V12.6332Z" fill="#EA412C"/>
<path d="M15.0625 7.08203V9.82072C14.6696 9.58284 14.186 9.43631 13.6562 9.43631C12.3635 9.43631 11.3125 10.2772 11.3125 11.3113C11.3125 12.3454 12.3635 13.1863 13.6562 13.1863C14.949 13.1863 16 12.3454 16 11.3113V6.67188L15.0625 7.08203Z" fill="#EA412C"/>
</g>
</g>
<defs>
<clipPath id="clip0_117:8521">
<rect width="16" height="16" fill="white" transform="translate(0 -0.000976562)"/>
</clipPath>
<clipPath id="clip1_117:8521">
<rect width="16" height="16" fill="white" transform="translate(0 -0.000976562)"/>
</clipPath>
</defs>
</svg>
