<svg width="40" height="40" viewBox="0 0 40 40" fill="none" xmlns="http://www.w3.org/2000/svg">
<g clip-path="url(#clip0_112_2541)">
<path d="M21.9049 15.4077C22.144 15.4077 22.3745 15.4461 22.5965 15.5101L26.7373 10.4344C27.002 10.1099 27.493 10.0502 27.8131 10.3234C28.1248 10.5838 28.1674 11.0491 27.907 11.365L23.8131 16.3853C24.0906 16.7695 24.2571 17.2434 24.2571 17.7556C24.2571 18.7076 23.6851 19.5315 22.8697 19.8986H38.9337C39.5228 19.8986 40.001 19.4205 40.001 18.8314V5.32017C40.001 4.73105 39.5228 4.25293 38.9337 4.25293H18.5282C17.9391 4.25293 17.4609 4.73105 17.4609 5.32017V14.191L18.4257 15.4119H21.9049V15.4077Z" fill="#EA412C"/>
<path d="M8.5921 9.57532C11.0064 9.57532 12.9635 7.61817 12.9635 5.20392C12.9635 2.78966 11.0064 0.83252 8.5921 0.83252C6.17784 0.83252 4.2207 2.78966 4.2207 5.20392C4.2207 7.61817 6.17784 9.57532 8.5921 9.57532Z" fill="#EA412C"/>
<path d="M13.0758 38.1057C13.0758 38.6949 12.5977 39.1729 12.0085 39.1729H10.2156C9.62647 39.1729 9.14834 38.6949 9.14834 38.1057V29.158C9.14834 28.8421 8.89221 28.586 8.57631 28.586C8.2604 28.586 8.00427 28.8421 8.00427 29.158V38.063C8.00427 38.6735 7.5048 39.1729 6.89434 39.1729H5.13981C4.55069 39.1729 4.07257 38.6949 4.07257 38.1057L4.06403 16.5048C4.06403 16.2146 3.82924 15.9755 3.53469 15.9755C3.2444 15.9755 3.00534 16.2103 3.00534 16.5048V24.8122C3.00534 25.4013 2.52721 25.8794 1.9381 25.8794H1.06724C0.478122 25.8794 0 25.4013 0 24.8122V13.4227C0 12.0694 1.09712 10.9766 2.4461 10.9766H12.1665C13.2081 10.9766 14.1942 11.4547 14.8431 12.2701L17.4557 15.5657L18.0064 16.2615C18.0064 16.2615 20.4823 16.2615 21.9082 16.2658C22.4973 16.2658 22.9754 16.7439 22.9754 17.333V18.1825C22.9754 18.7717 22.4973 19.2498 21.9082 19.2498H17.2892C16.8324 19.2498 16.4013 19.0406 16.1195 18.682L14.1729 16.1804C14.0747 16.0523 13.9168 15.9755 13.7545 15.9755H13.6222C13.3319 15.9755 13.0929 16.2102 13.0929 16.5048L13.0758 38.1057Z" fill="#EA412C"/>
</g>
<defs>
<clipPath id="clip0_112_2541">
<rect width="40" height="40" fill="white"/>
</clipPath>
</defs>
</svg>
