<svg width="40" height="40" viewBox="0 0 40 40" fill="none" xmlns="http://www.w3.org/2000/svg">
<g clip-path="url(#clip0_104_43)">
<path d="M0 6.06058V30.9104C0 32.123 0.983119 33.1062 2.19583 33.1062H26.6372V28.7474C26.1909 28.2316 25.8308 27.6531 25.564 27.0223C25.2231 26.2163 25.0504 25.3611 25.0504 24.4801C25.0504 23.5992 25.2232 22.744 25.564 21.938C25.8929 21.1603 26.3635 20.4623 26.9628 19.8629C27.5621 19.2636 28.2603 18.793 29.038 18.464C29.8439 18.1232 30.6992 17.9503 31.5801 17.9503C32.4611 17.9503 33.3163 18.1232 34.1222 18.464C34.8999 18.793 35.598 19.2636 36.1974 19.8629C36.7967 20.4622 37.2672 21.1603 37.5962 21.938C37.9371 22.744 38.1099 23.5992 38.1099 24.4801C38.1099 25.3611 37.937 26.2163 37.5962 27.0223C37.3294 27.6531 36.9693 28.2316 36.523 28.7474V33.1062H37.8042C39.0168 33.1062 40 32.123 40 30.9104V14.0615H32.4381C30.9851 14.0615 29.8031 12.8794 29.8031 11.4265V3.86475H2.19583C0.983075 3.86475 0 4.84787 0 6.06058ZM4.87585 10.7559H26.807V13.1714H4.87585V10.7559ZM4.87585 19.3966H23.4693V20.7141H4.87585V19.3966ZM4.87585 23.5247H15.8414V24.8422H4.87585V23.5247V23.5247Z" fill="#EA412C"/>
<path d="M31.1211 4.07089V11.4264C31.1211 12.154 31.711 12.7439 32.4386 12.7439H39.795H40.0004L31.1211 3.86426V4.07089Z" fill="#EA412C"/>
<path d="M35.2058 33.1061V29.9121C34.8653 30.1397 34.5035 30.3351 34.1226 30.4962C33.3166 30.837 32.4614 31.0099 31.5805 31.0099C30.6995 31.0099 29.8443 30.837 29.0383 30.4962C28.6574 30.3351 28.2956 30.1397 27.9551 29.9121V33.1061V36.1355L31.5804 34.6914L35.2057 36.1355V33.1061H35.2058Z" fill="#EA412C"/>
<path d="M35.8635 27.4489C36.1412 27.049 36.3644 26.6084 36.5223 26.1378C36.6969 25.617 36.7917 25.0595 36.7917 24.4798C36.7917 21.6012 34.458 19.2676 31.5794 19.2676C28.7008 19.2676 26.3672 21.6012 26.3672 24.4799C26.3672 25.0595 26.462 25.617 26.6365 26.1378C26.7944 26.6085 27.0176 27.049 27.2953 27.4489C27.4895 27.7285 27.7102 27.9883 27.954 28.2244C28.8921 29.1328 30.1704 29.6922 31.5794 29.6922C32.9884 29.6922 34.2666 29.1329 35.2048 28.2244C35.4485 27.9882 35.6693 27.7285 35.8635 27.4489Z" fill="#EA412C"/>
</g>
<defs>
<clipPath id="clip0_104_43">
<rect width="40" height="40" fill="white"/>
</clipPath>
</defs>
</svg>
