<svg width="20" height="20" viewBox="0 0 20 20" fill="none" xmlns="http://www.w3.org/2000/svg">
<g clip-path="url(#clip0_102_17844)">
<path d="M19.9116 4.27886C19.7934 4.08652 19.577 3.97749 19.3518 3.99702L18.3545 4.0839L19.3078 2.16229C19.4213 1.93343 19.3764 1.65768 19.1963 1.47655C19.016 1.29542 18.7406 1.24924 18.5112 1.36159L15.9882 2.59718C14.4295 1.77428 12.4821 2.01854 11.1421 3.23921C10.0238 4.25796 9.43591 5.82464 9.54552 7.38699C6.62251 7.09402 4.14828 5.42093 2.68523 2.71757C2.58816 2.53823 2.40617 2.42093 2.20277 2.40651C1.99898 2.39233 1.80265 2.48265 1.68132 2.64659C0.7739 3.87245 0.710228 5.55324 1.4216 6.93601C1.2255 6.88648 1.01683 6.81945 0.785424 6.74215C0.587181 6.67586 0.368626 6.71832 0.209524 6.85394C0.0504223 6.98957 -0.0260622 7.19859 0.00796127 7.40488C0.289446 9.11145 1.2846 10.423 2.85664 11.1993C2.65195 11.2706 2.44308 11.3285 2.2307 11.3728C2.01968 11.4168 1.84882 11.5711 1.78379 11.7766C1.71875 11.9821 1.76961 12.2067 1.91687 12.3641C3.04894 13.5742 4.68426 14.1698 5.84582 14.4555C4.52512 15.4897 3.09945 15.6628 1.02781 15.5917C0.788002 15.5844 0.567064 15.7195 0.466243 15.9369C0.365462 16.1543 0.404564 16.411 0.565619 16.5885C1.42921 17.5404 4.57555 18.6138 7.88306 18.6942C8.01388 18.6974 8.14731 18.6991 8.28356 18.6991C10.6059 18.6991 13.6751 18.2013 15.8781 15.9983C17.5455 14.3308 18.5885 12.4113 18.9779 10.2931C19.2925 8.58223 19.0937 7.21223 18.9982 6.55379C18.9911 6.50539 18.9836 6.45402 18.9775 6.4091L19.9104 4.90558C20.0294 4.71378 20.0299 4.4712 19.9116 4.27886Z" fill="white"/>
</g>
<defs>
<clipPath id="clip0_102_17844">
<rect width="20" height="20" fill="white"/>
</clipPath>
</defs>
</svg>
