<svg width="16" height="16" viewBox="0 0 16 16" fill="none" xmlns="http://www.w3.org/2000/svg">
<g clip-path="url(#clip0_117:8509)">
<rect width="16" height="16" transform="translate(0 -0.000976562)" fill="white"/>
<g clip-path="url(#clip1_117:8509)">
<path d="M9.481 1.91755C8.48741 1.30474 7.31 0.967773 6.09375 0.967773C2.78294 0.967773 0 3.43443 0 6.59277C0 7.70012 0.344 8.76165 0.997437 9.67843L0.084625 12.5442C-0.0118125 12.847 0.214938 13.1553 0.531344 13.1553C0.603688 13.1553 0.6765 13.1386 0.743688 13.1044L3.51969 11.6929C3.63209 11.7413 3.74591 11.7863 3.86087 11.8281C3.21816 10.825 2.875 9.6734 2.875 8.46777C2.875 4.87724 5.89619 2.1169 9.481 1.91755Z" fill="#EA412C"/>
<path d="M15.0026 11.5534C15.656 10.6366 16 9.57512 16 8.46777C16 5.30827 13.2159 2.84277 9.90625 2.84277C6.59544 2.84277 3.8125 5.30943 3.8125 8.46777C3.8125 11.6273 6.59663 14.0928 9.90625 14.0928C10.7943 14.0928 11.6791 13.9118 12.4802 13.5678L15.2563 14.9794C15.4248 15.065 15.6283 15.0411 15.7723 14.9187C15.9163 14.7963 15.9728 14.5994 15.9154 14.4193L15.0026 11.5534ZM8 8.93652C7.74113 8.93652 7.53125 8.72665 7.53125 8.46777C7.53125 8.2089 7.74113 7.99902 8 7.99902C8.25887 7.99902 8.46875 8.2089 8.46875 8.46777C8.46875 8.72665 8.25887 8.93652 8 8.93652ZM9.875 8.93652C9.61613 8.93652 9.40625 8.72665 9.40625 8.46777C9.40625 8.2089 9.61613 7.99902 9.875 7.99902C10.1339 7.99902 10.3438 8.2089 10.3438 8.46777C10.3438 8.72665 10.1339 8.93652 9.875 8.93652ZM11.75 8.93652C11.4911 8.93652 11.2812 8.72665 11.2812 8.46777C11.2812 8.2089 11.4911 7.99902 11.75 7.99902C12.0089 7.99902 12.2188 8.2089 12.2188 8.46777C12.2188 8.72665 12.0089 8.93652 11.75 8.93652Z" fill="#EA412C"/>
</g>
</g>
<defs>
<clipPath id="clip0_117:8509">
<rect width="16" height="16" fill="white" transform="translate(0 -0.000976562)"/>
</clipPath>
<clipPath id="clip1_117:8509">
<rect width="16" height="16" fill="white" transform="translate(0 -0.000976562)"/>
</clipPath>
</defs>
</svg>
