<svg width="36" height="36" viewBox="0 0 36 36" fill="none" xmlns="http://www.w3.org/2000/svg">
<path d="M29.25 33.8906H26.3804C24.8774 33.8906 23.5725 32.821 23.2778 31.3471L23.0131 30.0234H12.9869L12.7222 31.3471C12.4275 32.821 11.1226 33.8906 9.61959 33.8906H6.75C6.16753 33.8906 5.69531 34.3628 5.69531 34.9453C5.69531 35.5278 6.16753 36 6.75 36H29.25C29.8325 36 30.3047 35.5278 30.3047 34.9453C30.3047 34.3628 29.8325 33.8906 29.25 33.8906Z" fill="#EA412C"/>
<path d="M18 8.78906C18.9708 8.78906 19.7578 8.00206 19.7578 7.03125C19.7578 6.06044 18.9708 5.27344 18 5.27344C17.0292 5.27344 16.2422 6.06044 16.2422 7.03125C16.2422 8.00206 17.0292 8.78906 18 8.78906Z" fill="#EA412C"/>
<path d="M18.0008 10.8984C15.9868 10.8984 14.3275 12.4457 14.1494 14.4141H21.8521C21.674 12.4457 20.0147 10.8984 18.0008 10.8984Z" fill="#EA412C"/>
<path d="M32.8359 0H3.16406C1.4194 0 0 1.4194 0 3.16406V24.75C0 26.4947 1.4194 27.9141 3.16406 27.9141H32.8359C34.5806 27.9141 36 26.4947 36 24.75V3.16406C36 1.4194 34.5806 0 32.8359 0ZM12.0234 14.7656C12.0234 12.5323 13.2556 10.5824 15.075 9.55666C14.4887 8.87857 14.1328 7.99594 14.1328 7.03125C14.1328 4.89888 15.8676 3.16406 18 3.16406C20.1324 3.16406 21.8672 4.89888 21.8672 7.03125C21.8672 7.99594 21.5113 8.87857 20.925 9.55666C22.7444 10.5824 23.9766 12.5323 23.9766 14.7656V15.4688C23.9766 16.0512 23.5043 16.5234 22.9219 16.5234H13.0781C12.4957 16.5234 12.0234 16.0512 12.0234 15.4688V14.7656ZM30.6562 23.3438H11.3203V23.6953C11.3203 24.2778 10.8481 24.75 10.2656 24.75C9.68316 24.75 9.21094 24.2778 9.21094 23.6953V23.3438H5.34375C4.76128 23.3438 4.28906 22.8715 4.28906 22.2891C4.28906 21.7066 4.76128 21.2344 5.34375 21.2344H9.21094V20.8828C9.21094 20.3003 9.68316 19.8281 10.2656 19.8281C10.8481 19.8281 11.3203 20.3003 11.3203 20.8828V21.2344H30.6562C31.2387 21.2344 31.7109 21.7066 31.7109 22.2891C31.7109 22.8715 31.2387 23.3438 30.6562 23.3438Z" fill="#EA412C"/>
</svg>
