<svg width="16" height="16" viewBox="0 0 16 16" fill="none" xmlns="http://www.w3.org/2000/svg">
<path d="M14.4942 1.88756C14.4277 1.60906 14.1217 1.41956 13.8442 1.51806C13.8442 1.51806 1.82369 5.76056 1.82169 5.76206C1.63719 5.83056 1.50169 6.00656 1.49169 6.20806C1.48269 6.40156 1.60219 6.60306 1.77869 6.68506L6.43469 8.85856C6.43469 8.85856 8.70319 6.59006 8.70719 6.58606C9.15719 6.13606 9.87569 6.83206 9.41419 7.29306L7.14169 9.56556C7.14169 9.56556 9.31219 14.2166 9.31619 14.2241C9.40469 14.3941 9.57769 14.5021 9.76769 14.5106C9.97419 14.5201 10.1652 14.3621 10.2392 14.1771C10.2392 14.1771 14.4792 2.16356 14.4817 2.15606C14.5132 2.06956 14.5152 1.97606 14.4942 1.88756Z" fill="#EA412C"/>
</svg>
