<svg width="26" height="26" viewBox="0 0 26 26" fill="none" xmlns="http://www.w3.org/2000/svg">
<g clip-path="url(#clip0_124_50)">
<path d="M13 26C20.1797 26 26 20.1797 26 13C26 5.8203 20.1797 0 13 0C5.8203 0 0 5.8203 0 13C0 20.1797 5.8203 26 13 26Z" fill="#FF6A22"/>
<path d="M3.87129 15.9513C3.86503 15.9935 3.83491 16.0236 3.79574 16.0236C3.75658 16.0236 3.72645 15.9935 3.72043 15.9504L3.58301 14.9219L3.72043 13.8763C3.72622 13.8327 3.75635 13.8026 3.79574 13.8026C3.83467 13.8026 3.8648 13.8327 3.87129 13.8763L4.0349 14.9231L3.87129 15.9513ZM4.57137 16.5761C4.56488 16.6208 4.53244 16.6521 4.49234 16.6521C4.45341 16.6521 4.41935 16.6208 4.41402 16.5761L4.22909 14.9217L4.41402 13.2302C4.41958 13.1867 4.45341 13.1542 4.49234 13.1542C4.53244 13.1542 4.56488 13.186 4.57137 13.2302L4.78178 14.9217L4.57137 16.5761ZM5.32683 16.8562C5.3215 16.91 5.28118 16.9482 5.23275 16.9482C5.18269 16.9482 5.14306 16.91 5.1382 16.8562L4.96277 14.9231L5.1382 12.9165C5.1426 12.862 5.18269 12.8231 5.23275 12.8231C5.28118 12.8231 5.32127 12.862 5.32683 12.9165L5.52589 14.9231L5.32683 16.8562ZM6.08971 16.9176C6.08415 16.9793 6.03595 17.0259 5.97871 17.0259C5.92008 17.0259 5.87211 16.9793 5.86724 16.9176L5.70155 14.9231L5.86724 12.8613C5.87211 12.7992 5.92008 12.7526 5.97871 12.7526C6.03595 12.7526 6.08415 12.7992 6.08971 12.8613L6.27765 14.9231L6.08971 16.9176ZM6.85676 16.9336C6.85282 17.0052 6.79697 17.0583 6.73093 17.0583C6.6628 17.0583 6.6088 17.0052 6.60417 16.9336L6.44751 14.9228L6.60417 13.0101C6.60903 12.9389 6.6628 12.8859 6.73093 12.8859C6.79813 12.8859 6.85282 12.9389 6.85676 13.0092L7.03427 14.9228L6.85676 16.9336ZM7.63123 16.9348V16.9336C7.62659 17.0129 7.56379 17.0754 7.48824 17.0754C7.41247 17.0754 7.34967 17.0126 7.34526 16.9348L7.19904 14.924L7.34526 11.812C7.34967 11.7327 7.41247 11.6702 7.48824 11.6702C7.56402 11.6702 7.62682 11.733 7.63123 11.8108L7.79692 14.924L7.63123 16.9348ZM8.3999 16.9336V16.9325C8.39526 17.0201 8.32598 17.0898 8.24023 17.0898C8.15611 17.0898 8.08659 17.0201 8.08242 16.9325L7.9443 14.9347L8.08242 11.1108C8.08659 11.0232 8.15611 10.9539 8.24023 10.9539C8.32598 10.9539 8.39526 11.0232 8.3999 11.1108L8.55539 14.9347L8.3999 16.9336ZM9.19731 16.9028V16.9016C9.19383 16.9992 9.11713 17.075 9.02281 17.075C8.92849 17.075 8.85179 16.9992 8.84831 16.9028L8.72016 14.9254C8.72016 14.9254 8.84831 10.7829 8.84831 10.7817C8.85202 10.6853 8.92849 10.6081 9.02281 10.6081C9.11713 10.6081 9.19406 10.6853 9.19731 10.7817L9.34214 14.9254L9.19731 16.9028ZM9.99008 16.8896C9.98637 16.9957 9.90318 17.0789 9.79959 17.0789C9.69577 17.0789 9.61258 16.9957 9.60887 16.8905L9.4893 14.9249L9.60887 10.6429C9.61258 10.5363 9.69577 10.4533 9.79959 10.4533C9.90318 10.4533 9.9866 10.5363 9.99008 10.6429L10.1229 14.9249L9.99008 16.8896ZM10.788 16.8722V16.8711C10.7842 16.9858 10.6946 17.0768 10.5808 17.0768C10.4686 17.0768 10.3771 16.9858 10.375 16.8722L10.2652 14.9254L10.3738 10.7527C10.3771 10.6364 10.4684 10.5465 10.5808 10.5465C10.6946 10.5465 10.7842 10.6364 10.788 10.7527L10.9112 14.9254L10.788 16.8722ZM11.5923 16.8606V16.859C11.5905 16.9839 11.4917 17.0801 11.3698 17.0801C11.247 17.0801 11.1497 16.9839 11.146 16.8606L11.0468 14.9252L11.1462 10.9052C11.1499 10.7805 11.2473 10.683 11.3701 10.683C11.492 10.683 11.5907 10.7805 11.5925 10.9052L11.7049 14.9263L11.5923 16.8606ZM12.4129 16.6565L12.4029 16.846C12.4018 16.9121 12.374 16.9719 12.3316 17.015C12.288 17.0574 12.2282 17.0845 12.1649 17.0845C12.0912 17.0845 12.0264 17.0507 11.9819 16.9974C11.949 16.9587 11.9286 16.9086 11.9262 16.856C11.9256 16.8537 11.9256 16.8507 11.9256 16.8474C11.9256 16.8474 11.834 14.9272 11.834 14.924L11.9244 10.1866L11.9256 10.1412C11.9262 10.0582 11.9703 9.98428 12.0361 9.94188C12.0729 9.91731 12.1165 9.90294 12.1652 9.90294C12.2129 9.90294 12.2581 9.91778 12.2959 9.94396C12.3601 9.98683 12.402 10.0589 12.4032 10.1414L12.5037 14.9263L12.4129 16.6565ZM13.2103 16.8212V16.8189C13.2087 16.9589 13.094 17.0729 12.9554 17.0729C12.8163 17.0729 12.7019 16.9589 12.7005 16.8201L12.6479 15.8862L12.5962 14.9272L12.7005 9.73493V9.70875C12.7007 9.62996 12.7378 9.55951 12.795 9.512C12.8388 9.47608 12.8951 9.4543 12.9554 9.4543C13.0034 9.4543 13.0479 9.46751 13.0859 9.48976C13.1584 9.53518 13.2091 9.61559 13.2115 9.70759L13.3243 14.927L13.2103 16.8212ZM20.1005 17.078C20.1005 17.078 13.6854 17.078 13.6786 17.078C13.5401 17.0639 13.4305 16.9536 13.4281 16.8115V9.45986C13.4305 9.32453 13.477 9.25477 13.6513 9.1878C14.1011 9.01354 14.6105 8.91064 15.134 8.91064C17.2694 8.91064 19.0193 10.5488 19.2049 12.6356C19.4797 12.5209 19.7833 12.4555 20.1005 12.4555C21.3793 12.4555 22.4161 13.4928 22.4161 14.7724C22.4161 16.0519 21.3793 17.078 20.1005 17.078Z" fill="#F1F2F2"/>
</g>
<defs>
<clipPath id="clip0_124_50">
<rect width="26" height="26" fill="white"/>
</clipPath>
</defs>
</svg>
