<svg width="10" height="10" viewBox="0 0 10 10" fill="none" xmlns="http://www.w3.org/2000/svg">
<path d="M8.5 1.5H8V0.5C8 0.367392 7.94732 0.240215 7.85355 0.146447C7.75979 0.0526784 7.63261 0 7.5 0C7.36739 0 7.24021 0.0526784 7.14645 0.146447C7.05268 0.240215 7 0.367392 7 0.5V1.5H3V0.5C3 0.367392 2.94732 0.240215 2.85355 0.146447C2.75979 0.0526784 2.63261 0 2.5 0C2.36739 0 2.24021 0.0526784 2.14645 0.146447C2.05268 0.240215 2 0.367392 2 0.5V1.5H1.5C1.10218 1.5 0.720644 1.65804 0.43934 1.93934C0.158035 2.22064 0 2.60218 0 3V3.5H10V3C10 2.60218 9.84196 2.22064 9.56066 1.93934C9.27936 1.65804 8.89782 1.5 8.5 1.5Z" fill="white"/>
<path d="M0 8.5C0 8.89782 0.158035 9.27936 0.43934 9.56066C0.720644 9.84196 1.10218 10 1.5 10H8.5C8.89782 10 9.27936 9.84196 9.56066 9.56066C9.84196 9.27936 10 8.89782 10 8.5V4.5H0V8.5Z" fill="white"/>
</svg>
