<svg width="36" height="36" viewBox="0 0 36 36" fill="none" xmlns="http://www.w3.org/2000/svg">
<g clip-path="url(#clip0_89:829)">
<path d="M19.714 13.8674C19.9292 13.8674 20.1367 13.902 20.3365 13.9596L24.0632 9.39141C24.3015 9.09942 24.7433 9.04563 25.0314 9.29152C25.3119 9.52588 25.3503 9.94467 25.116 10.229L21.4314 14.7472C21.6812 15.093 21.831 15.5195 21.831 15.9806C21.831 16.8373 21.3162 17.5789 20.5824 17.9092H35.04C35.5702 17.9092 36.0005 17.479 36.0005 16.9487V4.78864C36.0005 4.25843 35.5702 3.82812 35.04 3.82812H16.675C16.1448 3.82812 15.7145 4.25843 15.7145 4.78864V12.7724L16.5828 13.8712H19.714V13.8674Z" fill="white"/>
<path d="M7.73327 8.61852C9.9061 8.61852 11.6675 6.85709 11.6675 4.68426C11.6675 2.51143 9.9061 0.75 7.73327 0.75C5.56044 0.75 3.79901 2.51143 3.79901 4.68426C3.79901 6.85709 5.56044 8.61852 7.73327 8.61852Z" fill="white"/>
<path d="M11.7682 34.2951C11.7682 34.8254 11.3379 35.2556 10.8077 35.2556H9.19402C8.66382 35.2556 8.23351 34.8254 8.23351 34.2951V26.2422C8.23351 25.9579 8.00299 25.7274 7.71868 25.7274C7.43436 25.7274 7.20384 25.9579 7.20384 26.2422V34.2567C7.20384 34.8062 6.75432 35.2556 6.20491 35.2556H4.62583C4.09562 35.2556 3.66531 34.8254 3.66531 34.2951L3.65763 14.8544C3.65763 14.5931 3.44632 14.378 3.18122 14.378C2.91996 14.378 2.7048 14.5893 2.7048 14.8544V22.331C2.7048 22.8612 2.27449 23.2915 1.74429 23.2915H0.960512C0.43031 23.2915 0 22.8612 0 22.331V12.0804C0 10.8625 0.987407 9.87891 2.20149 9.87891H10.9498C11.8873 9.87891 12.7748 10.3092 13.3588 11.043L15.7101 14.0091L16.2057 14.6354C16.2057 14.6354 18.4341 14.6354 19.7174 14.6392C20.2476 14.6392 20.6779 15.0695 20.6779 15.5997V16.3643C20.6779 16.8945 20.2476 17.3248 19.7174 17.3248H15.5603C15.1492 17.3248 14.7612 17.1365 14.5076 16.8138L12.7556 14.5623C12.6672 14.4471 12.5251 14.3779 12.3791 14.3779H12.26C11.9987 14.3779 11.7836 14.5892 11.7836 14.8543L11.7682 34.2951Z" fill="white"/>
</g>
<defs>
<clipPath id="clip0_89:829">
<rect width="36" height="36" fill="white"/>
</clipPath>
</defs>
</svg>
