<svg width="30" height="30" viewBox="0 0 30 30" fill="none" xmlns="http://www.w3.org/2000/svg">
<path d="M6.18748 18.0374C5.56875 19.5936 4.59377 21.1311 3.29063 22.6124C2.87813 23.0812 2.82188 23.7561 3.15937 24.2811C3.4219 24.6936 3.85312 24.9186 4.32187 24.9186C4.45312 24.9186 4.58439 24.9093 4.71565 24.8624C7.47185 24.0561 13.9125 21.1968 14.0907 12.028C14.1562 8.49367 11.5688 5.45618 8.20312 5.1093C6.33751 4.92179 4.48128 5.53113 3.10312 6.76864C1.72503 8.01553 0.9375 9.7968 0.9375 11.653C0.9375 14.7468 3.13128 17.4562 6.18748 18.0374Z" fill="#EA412C"/>
<path d="M23.1655 5.1093C21.3092 4.92179 19.453 5.53113 18.0749 6.76864C16.6967 8.01553 15.9092 9.7968 15.9092 11.653C15.9092 14.7468 18.103 17.4562 21.1592 18.0374C20.5404 19.5936 19.5655 21.1311 18.2623 22.6124C17.8498 23.0812 17.7936 23.7561 18.1311 24.2811C18.3936 24.6936 18.8249 24.9186 19.2936 24.9186C19.4248 24.9186 19.5561 24.9093 19.6873 24.8624C22.4436 24.0561 28.8842 21.1968 29.0623 12.028V11.8968C29.0623 8.41865 26.503 5.45618 23.1655 5.1093Z" fill="#EA412C"/>
</svg>
