<svg width="26" height="26" viewBox="0 0 26 26" fill="none" xmlns="http://www.w3.org/2000/svg">
<circle cx="13" cy="13" r="13" fill="white"/>
<path d="M13 0C5.81822 0 0 5.81822 0 13C0 20.1818 5.81822 26 13 26C20.1818 26 26 20.1818 26 13C26 5.81822 20.1818 0 13 0ZM16.7324 8.15244C16.7324 8.15244 15.3573 8.14089 15.0107 8.14089C14.4907 8.14089 14.144 8.59156 14.144 9.048V10.9604H16.7324L16.4378 13.5662H14.1151V20.2222H11.4862V13.6009H9.26756V10.9316H11.5209C11.5209 10.9316 11.5209 9.99556 11.5209 8.41245C11.5209 7.00844 13.0809 5.772 14.1671 5.772C14.3289 5.772 16.7324 5.79511 16.7324 5.79511V8.15244Z" fill="#145FAA"/>
</svg>
