<svg width="30" height="30" viewBox="0 0 30 30" fill="none" xmlns="http://www.w3.org/2000/svg">
<path d="M0 10.6055H5.39062V12.3633H0V10.6055Z" fill="white"/>
<path d="M5.39062 5.33203H0.878906C0.393448 5.33203 0 5.72548 0 6.21094V8.84766H5.39062V5.33203Z" fill="white"/>
<path d="M5.39062 19.3945V14.1211H0V25.5469C0 26.0323 0.393448 26.4258 0.878906 26.4258H9.66797C10.1534 26.4258 10.5469 26.0323 10.5469 25.5469V22.9102H8.90625C6.96762 22.9102 5.39062 21.3332 5.39062 19.3945ZM5.27344 24.6682C4.78798 24.6682 4.39453 24.2745 4.39453 23.7893C4.39453 23.3038 4.78798 22.9104 5.27344 22.9104C5.7589 22.9104 6.15234 23.3038 6.15234 23.7893C6.15234 24.2745 5.7589 24.6682 5.27344 24.6682Z" fill="white"/>
<path d="M28.2422 3.57422H8.90625C7.93694 3.57422 7.14844 4.36272 7.14844 5.33203V19.3945C7.14844 20.3638 7.93694 21.1523 8.90625 21.1523H15.0586V24.668H13.3008C12.8153 24.668 12.4219 25.0614 12.4219 25.5469C12.4219 26.0323 12.8153 26.4258 13.3008 26.4258H23.8477C24.3331 26.4258 24.7266 26.0323 24.7266 25.5469C24.7266 25.0614 24.3331 24.668 23.8477 24.668H22.0898V21.1523H28.2422C29.2115 21.1523 30 20.3638 30 19.3945V5.33203C30 4.36272 29.2115 3.57422 28.2422 3.57422Z" fill="white"/>
</svg>
