<svg width="26" height="26" viewBox="0 0 26 26" fill="none" xmlns="http://www.w3.org/2000/svg">
<g clip-path="url(#clip0_124_43)">
<circle cx="12.6523" cy="13" r="13" fill="white"/>
<g clip-path="url(#clip1_124_43)">
<path fill-rule="evenodd" clip-rule="evenodd" d="M17.8215 10.3488C17.8263 10.4634 17.8296 10.5779 17.8296 10.6941C17.8296 14.2179 15.1467 18.2821 10.2408 18.2821C8.73447 18.2821 7.33291 17.8409 6.15234 17.0844C6.36116 17.1088 6.57322 17.121 6.78853 17.121C8.03816 17.121 9.18784 16.6952 10.1011 15.9794C8.93353 15.9583 7.94878 15.1873 7.60916 14.1278C7.77247 14.1586 7.93903 14.1749 8.11128 14.1749C8.35422 14.1749 8.58984 14.1424 8.81409 14.0814C7.59372 13.8369 6.67478 12.7587 6.67478 11.4668V11.4327C7.03391 11.6326 7.44584 11.7528 7.88297 11.7666C7.16716 11.2881 6.69591 10.4715 6.69591 9.54688C6.69591 9.05775 6.82753 8.5995 7.05747 8.20544C8.37291 9.81906 10.3383 10.881 12.5548 10.9923C12.5093 10.7973 12.4858 10.5934 12.4858 10.3846C12.4858 8.9115 13.6802 7.71713 15.1524 7.71713C15.9202 7.71713 16.6133 8.04131 17.0992 8.55969C17.7069 8.44025 18.2781 8.21844 18.7932 7.91294C18.5942 8.53531 18.1708 9.05775 17.6208 9.38844C18.1603 9.32344 18.6738 9.18044 19.1523 8.96838C18.7948 9.503 18.3423 9.97263 17.8215 10.3488V10.3488ZM12.6523 0C5.47228 0 -0.347656 5.81994 -0.347656 13C-0.347656 20.1793 5.47228 26 12.6523 26C19.8324 26 25.6523 20.1793 25.6523 13C25.6523 5.81994 19.8324 0 12.6523 0" fill="#41A1F2"/>
</g>
</g>
<defs>
<clipPath id="clip0_124_43">
<rect width="26" height="26" fill="white"/>
</clipPath>
<clipPath id="clip1_124_43">
<rect width="26" height="26" fill="white" transform="translate(-0.347656)"/>
</clipPath>
</defs>
</svg>
