<svg width="36" height="36" viewBox="0 0 36 36" fill="none" xmlns="http://www.w3.org/2000/svg">
<path d="M34.9453 4.21875H29.5651C29.0751 1.8147 26.9449 0 24.3984 0C21.852 0 19.7217 1.8147 19.2317 4.21875H1.05469C0.471727 4.21875 0 4.69048 0 5.27344C0 5.8564 0.471727 6.32812 1.05469 6.32812H19.2317C19.7217 8.73218 21.852 10.5469 24.3984 10.5469C26.9449 10.5469 29.0751 8.73218 29.5651 6.32812H34.9453C35.5283 6.32812 36 5.8564 36 5.27344C36 4.69048 35.5283 4.21875 34.9453 4.21875Z" fill="white"/>
<path d="M34.9453 16.9453H16.8386C16.3486 14.5413 14.2183 12.7266 11.6719 12.7266C9.12544 12.7266 6.99518 14.5413 6.50517 16.9453H1.05469C0.471727 16.9453 0 17.417 0 18C0 18.583 0.471727 19.0547 1.05469 19.0547H6.50517C6.99518 21.4587 9.12544 23.2734 11.6719 23.2734C14.2183 23.2734 16.3486 21.4587 16.8386 19.0547H34.9453C35.5283 19.0547 36 18.583 36 18C36 17.417 35.5283 16.9453 34.9453 16.9453Z" fill="white"/>
<path d="M34.9453 29.6719H29.5651C29.0751 27.2678 26.9449 25.4531 24.3984 25.4531C21.852 25.4531 19.7217 27.2678 19.2317 29.6719H1.05469C0.471727 29.6719 0 30.1436 0 30.7266C0 31.3095 0.471727 31.7812 1.05469 31.7812H19.2317C19.7217 34.1853 21.852 36 24.3984 36C26.9449 36 29.0751 34.1853 29.5651 31.7812H34.9453C35.5283 31.7812 36 31.3095 36 30.7266C36 30.1436 35.5283 29.6719 34.9453 29.6719Z" fill="white"/>
</svg>
