<svg width="40" height="40" viewBox="0 0 40 40" fill="none" xmlns="http://www.w3.org/2000/svg">
<path d="M0 14.1406H7.1875V16.4844H0V14.1406Z" fill="#EA412C"/>
<path d="M7.1875 7.10938H1.17188C0.524597 7.10938 0 7.63397 0 8.28125V11.7969H7.1875V7.10938Z" fill="#EA412C"/>
<path d="M7.1875 25.8594V18.8281H0V34.0625C0 34.7098 0.524597 35.2344 1.17188 35.2344H12.8906C13.5379 35.2344 14.0625 34.7098 14.0625 34.0625V30.5469H11.875C9.29016 30.5469 7.1875 28.4442 7.1875 25.8594ZM7.03125 32.8909C6.38397 32.8909 5.85938 32.366 5.85938 31.7191C5.85938 31.0718 6.38397 30.5472 7.03125 30.5472C7.67853 30.5472 8.20312 31.0718 8.20312 31.7191C8.20312 32.366 7.67853 32.8909 7.03125 32.8909Z" fill="#EA412C"/>
<path d="M37.6562 4.76562H11.875C10.5826 4.76562 9.53125 5.81696 9.53125 7.10938V25.8594C9.53125 27.1518 10.5826 28.2031 11.875 28.2031H20.0781V32.8906H17.7344C17.0871 32.8906 16.5625 33.4152 16.5625 34.0625C16.5625 34.7098 17.0871 35.2344 17.7344 35.2344H31.7969C32.4442 35.2344 32.9688 34.7098 32.9688 34.0625C32.9688 33.4152 32.4442 32.8906 31.7969 32.8906H29.4531V28.2031H37.6562C38.9487 28.2031 40 27.1518 40 25.8594V7.10938C40 5.81696 38.9487 4.76562 37.6562 4.76562Z" fill="#EA412C"/>
</svg>
