<svg width="16" height="16" viewBox="0 0 16 16" fill="none" xmlns="http://www.w3.org/2000/svg">
<path d="M4.6138 14.1237C5.61917 14.6807 6.77389 15 8.00341 15C11.8685 15 15.0001 11.8617 15.0001 7.99658C15.0001 4.13147 11.8685 1 8.00341 1C4.1383 1 1 4.13147 1 7.99658C1 9.23969 1.32608 10.3944 1.88986 11.4066L1 15L4.6138 14.1237ZM5.00101 4.90586C5.164 4.74961 5.40179 4.68848 5.61917 4.73605L5.84329 4.7836C6.06747 4.83111 6.25089 4.98059 6.3392 5.18435L6.7807 6.16254C6.88941 6.40027 6.84867 6.68558 6.67203 6.88257L6.4003 7.20184C6.31201 7.30371 6.29165 7.45993 6.35956 7.58224C7.1611 9.02231 8.21398 9.49102 8.68267 9.63363C8.81854 9.6812 8.97482 9.62008 9.04952 9.49776L9.24651 9.19213C9.43673 8.90004 9.81032 8.79812 10.2247 9.00191L11.0398 9.40951C11.3523 9.55892 11.4949 9.92571 11.3794 10.2518C10.9651 11.4541 9.90542 11.3047 9.90542 11.3047C7.55511 11.2435 5.71422 9.07662 4.91949 7.96264C4.55267 7.43957 4.32852 6.80786 4.39642 6.16253C4.46439 5.52398 4.76328 5.12323 5.00101 4.90586Z" fill="#EA412C"/>
</svg>
