<svg width="20" height="20" viewBox="0 0 20 20" fill="none" xmlns="http://www.w3.org/2000/svg">
<path fill-rule="evenodd" clip-rule="evenodd" d="M16.6319 3.34007C14.8778 1.58386 12.5449 0.616264 10.0596 0.615234C4.93836 0.615234 0.770424 4.78306 0.768364 9.90566C0.767677 11.5432 1.19546 13.1417 2.00856 14.5507L0.69043 19.3652L5.61585 18.0732C6.97301 18.8135 8.50091 19.2036 10.0558 19.2041H10.0597C15.1804 19.2041 19.3488 15.0359 19.3507 9.9131C19.3517 7.43042 18.3862 5.09617 16.6319 3.34007ZM10.0596 17.635H10.0564C8.67074 17.6344 7.31175 17.262 6.12592 16.5586L5.84405 16.3911L2.92123 17.1579L3.70137 14.3082L3.51769 14.016C2.74464 12.7865 2.33643 11.3654 2.33712 9.90623C2.33872 5.64846 5.80308 2.18445 10.0627 2.18445C12.1254 2.18513 14.0643 2.98943 15.5223 4.44912C16.9803 5.90881 17.7828 7.84904 17.7821 9.91253C17.7802 14.1706 14.3161 17.635 10.0596 17.635ZM14.2955 11.8513C14.0634 11.735 12.922 11.1736 12.7091 11.096C12.4965 11.0185 12.3415 10.9799 12.1869 11.2122C12.0321 11.4445 11.5873 11.9675 11.4518 12.1224C11.3163 12.2773 11.181 12.2968 10.9488 12.1805C10.7166 12.0644 9.96861 11.8191 9.08181 11.0282C8.39173 10.4126 7.92584 9.6524 7.79034 9.42009C7.65507 9.18754 7.7892 9.07402 7.8922 8.9463C8.14351 8.63422 8.39516 8.30704 8.47253 8.1522C8.55 7.99724 8.51121 7.86163 8.45307 7.74547C8.39516 7.62932 7.93088 6.48662 7.73747 6.02165C7.54887 5.56915 7.35764 5.63026 7.21505 5.62317C7.07978 5.61642 6.92494 5.61504 6.7701 5.61504C6.61538 5.61504 6.36384 5.67306 6.15098 5.90561C5.93823 6.13804 5.33856 6.6996 5.33856 7.84229C5.33856 8.98498 6.17043 10.0889 6.28648 10.2438C6.40252 10.3988 7.92355 12.7437 10.2523 13.7492C10.8062 13.9886 11.2386 14.1313 11.5758 14.2383C12.132 14.415 12.6379 14.39 13.038 14.3303C13.4841 14.2636 14.4114 13.7686 14.6051 13.2264C14.7985 12.6841 14.7985 12.2193 14.7403 12.1224C14.6824 12.0256 14.5276 11.9675 14.2955 11.8513Z" fill="white"/>
</svg>
