<svg width="30" height="30" viewBox="0 0 30 30" fill="none" xmlns="http://www.w3.org/2000/svg">
<g clip-path="url(#clip0_112_3187)">
<path d="M16.4287 11.5555C16.608 11.5555 16.7809 11.5843 16.9474 11.6324L20.053 7.82553C20.2515 7.5822 20.6197 7.53737 20.8598 7.74228C21.0936 7.93759 21.1256 8.28657 20.9303 8.5235L17.8598 12.2887C18.068 12.5769 18.1928 12.9323 18.1928 13.3165C18.1928 14.0305 17.7638 14.6484 17.1523 14.9237H29.2003C29.6421 14.9237 30.0007 14.5652 30.0007 14.1233V3.98988C30.0007 3.54804 29.6421 3.18945 29.2003 3.18945H13.8961C13.4543 3.18945 13.0957 3.54804 13.0957 3.98988V10.643L13.8193 11.5587H16.4287V11.5555Z" fill="white"/>
<path d="M6.44456 7.18112C8.25526 7.18112 9.72311 5.71326 9.72311 3.90257C9.72311 2.09188 8.25526 0.624023 6.44456 0.624023C4.63387 0.624023 3.16602 2.09188 3.16602 3.90257C3.16602 5.71326 4.63387 7.18112 6.44456 7.18112Z" fill="white"/>
<path d="M9.80683 28.5793C9.80683 29.0211 9.44824 29.3797 9.0064 29.3797H7.66169C7.21985 29.3797 6.86126 29.0211 6.86126 28.5793V21.8685C6.86126 21.6316 6.66916 21.4395 6.43223 21.4395C6.1953 21.4395 6.0032 21.6316 6.0032 21.8685V28.5473C6.0032 29.0051 5.6286 29.3797 5.17076 29.3797H3.85486C3.41302 29.3797 3.05443 29.0211 3.05443 28.5793L3.04803 12.3786C3.04803 12.1609 2.87193 11.9817 2.65101 11.9817C2.4333 11.9817 2.254 12.1577 2.254 12.3786V18.6092C2.254 19.051 1.89541 19.4096 1.45358 19.4096H0.800427C0.358591 19.4096 0 19.051 0 18.6092V10.067C0 9.05206 0.822839 8.23242 1.83458 8.23242H9.12487C9.90605 8.23242 10.6457 8.59101 11.1323 9.20254L13.0917 11.6743L13.5048 12.1961C13.5048 12.1961 15.3618 12.1961 16.4311 12.1993C16.873 12.1993 17.2316 12.5579 17.2316 12.9998V13.6369C17.2316 14.0787 16.873 14.4373 16.4311 14.4373H12.9669C12.6243 14.4373 12.301 14.2804 12.0896 14.0115L10.6297 12.1353C10.556 12.0392 10.4376 11.9816 10.3159 11.9816H10.2166C9.99893 11.9816 9.81967 12.1577 9.81967 12.3786L9.80683 28.5793Z" fill="white"/>
</g>
<defs>
<clipPath id="clip0_112_3187">
<rect width="30" height="30" fill="white"/>
</clipPath>
</defs>
</svg>
