<svg width="30" height="30" viewBox="0 0 30 30" fill="none" xmlns="http://www.w3.org/2000/svg">
<path d="M25.6697 16.0146H23.3496C23.5861 16.6621 23.7153 17.3608 23.7153 18.0891V26.8577C23.7153 27.1613 23.6624 27.4528 23.5663 27.7238H27.4019C28.8347 27.7238 30.0003 26.5581 30.0003 25.1254V20.3453C30.0003 17.9574 28.0576 16.0146 25.6697 16.0146Z" fill="white"/>
<path d="M6.28507 18.0891C6.28507 17.3608 6.41427 16.6621 6.65075 16.0146H4.33067C1.94274 16.0146 0 17.9574 0 20.3453V25.1255C0 26.5582 1.16561 27.7239 2.5984 27.7239H6.43407C6.33792 27.4527 6.28507 27.1613 6.28507 26.8577V18.0891Z" fill="white"/>
<path d="M17.6523 13.7588H12.3482C9.96031 13.7588 8.01758 15.7015 8.01758 18.0895V26.858C8.01758 27.3363 8.40535 27.7242 8.88371 27.7242H21.1168C21.5952 27.7242 21.9829 27.3364 21.9829 26.858V18.0895C21.9829 15.7015 20.0402 13.7588 17.6523 13.7588Z" fill="white"/>
<path d="M15.0002 2.27539C12.1284 2.27539 9.79199 4.61176 9.79199 7.48362C9.79199 9.43158 10.8671 11.1328 12.4549 12.0261C13.208 12.4497 14.0763 12.6918 15.0002 12.6918C15.9241 12.6918 16.7923 12.4497 17.5454 12.0261C19.1332 11.1328 20.2083 9.43152 20.2083 7.48362C20.2083 4.61182 17.872 2.27539 15.0002 2.27539Z" fill="white"/>
<path d="M5.85499 7.12988C3.70723 7.12988 1.95996 8.87715 1.95996 11.0249C1.95996 13.1727 3.70723 14.9199 5.85499 14.9199C6.39979 14.9199 6.91858 14.8071 7.38985 14.6042C8.20466 14.2534 8.8765 13.6325 9.29222 12.8546C9.58402 12.3087 9.75002 11.6859 9.75002 11.0249C9.75002 8.87721 8.00275 7.12988 5.85499 7.12988Z" fill="white"/>
<path d="M24.145 7.12988C21.9973 7.12988 20.25 8.87715 20.25 11.0249C20.25 11.686 20.416 12.3088 20.7078 12.8546C21.1235 13.6325 21.7954 14.2535 22.6102 14.6042C23.0814 14.8071 23.6002 14.9199 24.145 14.9199C26.2928 14.9199 28.0401 13.1727 28.0401 11.0249C28.0401 8.87715 26.2928 7.12988 24.145 7.12988Z" fill="white"/>
</svg>
