<svg width="40" height="40" viewBox="0 0 40 40" fill="none" xmlns="http://www.w3.org/2000/svg">
<g clip-path="url(#clip0_112_2537)">
<path d="M36.4062 0H22.3438C20.4052 0 18.75 1.73328 18.75 3.67188V15.3906C18.75 17.3292 20.4052 18.9062 22.3438 18.9062H36.4062C38.3448 18.9062 40 17.3292 40 15.3906V3.67188C40 1.73328 38.3448 0 36.4062 0ZM25.8594 13.0469C25.8594 13.6946 25.3352 14.2188 24.6875 14.2188C24.0398 14.2188 23.5156 13.6946 23.5156 13.0469V10.7031C23.5156 10.0554 24.0398 9.53125 24.6875 9.53125C25.3352 9.53125 25.8594 10.0554 25.8594 10.7031V13.0469ZM30.5469 13.0469C30.5469 13.6946 30.0227 14.2188 29.375 14.2188C28.7273 14.2188 28.2031 13.6946 28.2031 13.0469V8.35938C28.2031 7.71164 28.7273 7.1875 29.375 7.1875C30.0227 7.1875 30.5469 7.71164 30.5469 8.35938V13.0469ZM35.2344 13.0469C35.2344 13.6946 34.7102 14.2188 34.0625 14.2188C33.4148 14.2188 32.8906 13.6946 32.8906 13.0469V6.01562C32.8906 5.36789 33.4148 4.84375 34.0625 4.84375C34.7102 4.84375 35.2344 5.36789 35.2344 6.01562V13.0469Z" fill="#F89E1B"/>
<path d="M9.375 7.1875C6.78977 7.1875 4.6875 9.28977 4.6875 11.875C4.6875 14.4602 6.78977 16.5625 9.375 16.5625C11.9602 16.5625 14.0625 14.4602 14.0625 11.875C14.0625 9.28977 11.9602 7.1875 9.375 7.1875Z" fill="#F89E1B"/>
<path d="M13.4853 17.5537C12.3263 18.3953 10.9132 18.9065 9.37442 18.9065C7.83559 18.9065 6.42255 18.3953 5.26356 17.5537C2.55286 18.8891 0.558327 21.4646 0.100437 24.5598C0.0366085 24.9907 0.222155 25.3801 0.524421 25.6389C1.57184 23.0695 4.08911 21.2503 7.03067 21.2503C9.91426 21.2503 12.3925 22.9981 13.476 25.4872C14.2639 23.6772 15.7998 22.2869 17.684 21.649C16.7557 19.8806 15.2846 18.44 13.4853 17.5537Z" fill="#F89E1B"/>
<path d="M7.03125 23.5938C4.44602 23.5938 2.34375 25.696 2.34375 28.2812C2.34375 30.8665 4.44602 32.9688 7.03125 32.9688C9.61648 32.9688 11.7188 30.8665 11.7188 28.2812C11.7188 25.696 9.61648 23.5938 7.03125 23.5938Z" fill="#F89E1B"/>
<path d="M19.9219 23.5938C17.3366 23.5938 15.2344 25.696 15.2344 28.2812C15.2344 30.8665 17.3366 32.9688 19.9219 32.9688C22.5071 32.9688 24.6875 30.8665 24.6875 28.2812C24.6875 25.696 22.5071 23.5938 19.9219 23.5938Z" fill="#F89E1B"/>
<path d="M32.8906 23.5938C30.3054 23.5938 28.2031 25.696 28.2031 28.2812C28.2031 30.8665 30.3054 32.9688 32.8906 32.9688C35.4759 32.9688 37.6562 30.8665 37.6562 28.2812C37.6562 25.696 35.4759 23.5938 32.8906 23.5938Z" fill="#F89E1B"/>
<path d="M10.5469 37.6562C10.5469 36.238 10.8827 34.9044 11.4547 33.7017C10.2426 34.6928 8.71555 35.3125 7.03125 35.3125C4.96133 35.3125 3.11664 34.3968 1.82875 32.9688C0.704375 34.2155 0 35.8489 0 37.6562V38.8281C0 39.4759 0.524141 40 1.17188 40H10.7627C10.6314 39.6316 10.5469 39.2409 10.5469 38.8281V37.6562Z" fill="#F89E1B"/>
<path d="M25.2025 32.9688C23.9146 34.3968 21.9918 35.3125 19.9219 35.3125C17.852 35.3125 16.0073 34.3968 14.7194 32.9688C13.595 34.2155 12.8906 35.8489 12.8906 37.6562V38.8281C12.8906 39.4759 13.4148 40 14.0625 40H25.8594C26.5071 40 27.0312 39.4759 27.0312 38.8281V37.6562C27.0312 35.8489 26.3269 34.2155 25.2025 32.9688Z" fill="#F89E1B"/>
<path d="M38.1718 32.9688C36.8839 34.3968 34.9611 35.3125 32.8912 35.3125C31.2069 35.3125 29.6799 34.6928 28.4678 33.7017C29.0397 34.9044 29.3756 36.238 29.3756 37.6562V38.8281C29.3756 39.2409 29.2911 39.6316 29.1597 40H38.8287C39.4764 40 40.0006 39.4759 40.0006 38.8281V37.6562C40.0006 35.8489 39.2962 34.2155 38.1718 32.9688Z" fill="#F89E1B"/>
</g>
<defs>
<clipPath id="clip0_112_2537">
<rect width="40" height="40" fill="white"/>
</clipPath>
</defs>
</svg>
