<svg width="16" height="16" viewBox="0 0 16 16" fill="none" xmlns="http://www.w3.org/2000/svg">
<g clip-path="url(#clip0_117:8501)">
<rect width="16" height="16" transform="translate(0 -0.000976562)" fill="white"/>
<g clip-path="url(#clip1_117:8501)">
<path d="M4.16676 12.9994C3.09943 12.9994 2.1501 12.3161 1.80543 11.2988L1.7821 11.2221C1.70076 10.9528 1.66676 10.7261 1.66676 10.4994V5.9541L0.0494292 11.3528C-0.158571 12.1468 0.315429 12.9701 1.11076 13.1894L11.4194 15.9501C11.5481 15.9834 11.6768 15.9994 11.8034 15.9994C12.4674 15.9994 13.0741 15.5588 13.2441 14.9094L13.8448 12.9994H4.16676Z" fill="#EA412C"/>
<path d="M6.00032 5.99967C6.73565 5.99967 7.33365 5.40167 7.33365 4.66634C7.33365 3.93101 6.73565 3.33301 6.00032 3.33301C5.26499 3.33301 4.66699 3.93101 4.66699 4.66634C4.66699 5.40167 5.26499 5.99967 6.00032 5.99967Z" fill="#EA412C"/>
<path d="M14.3337 1.33301H4.33366C3.41499 1.33301 2.66699 2.08101 2.66699 2.99967V10.333C2.66699 11.2517 3.41499 11.9997 4.33366 11.9997H14.3337C15.2523 11.9997 16.0003 11.2517 16.0003 10.333V2.99967C16.0003 2.08101 15.2523 1.33301 14.3337 1.33301ZM4.33366 2.66634H14.3337C14.5177 2.66634 14.667 2.81567 14.667 2.99967V7.73234L12.561 5.27501C12.3377 5.01301 12.0143 4.87301 11.667 4.86501C11.3217 4.86701 10.9977 5.02034 10.7763 5.28567L8.30033 8.25767L7.49366 7.45301C7.03766 6.99701 6.29566 6.99701 5.84033 7.45301L4.00033 9.29234V2.99967C4.00033 2.81567 4.14966 2.66634 4.33366 2.66634Z" fill="#EA412C"/>
</g>
</g>
<defs>
<clipPath id="clip0_117:8501">
<rect width="16" height="16" fill="white" transform="translate(0 -0.000976562)"/>
</clipPath>
<clipPath id="clip1_117:8501">
<rect width="16" height="16" fill="white" transform="translate(0 -0.000976562)"/>
</clipPath>
</defs>
</svg>
