<svg width="16" height="16" viewBox="0 0 16 16" fill="none" xmlns="http://www.w3.org/2000/svg">
<path d="M14.823 2.66663C14.823 3.86328 13.853 4.83337 12.6564 4.83337C11.4597 4.83337 10.4897 3.86328 10.4897 2.66663C10.4897 1.47009 11.4597 0.5 12.6564 0.5C13.853 0.5 14.823 1.47009 14.823 2.66663Z" fill="black"/>
<path d="M12.6564 5.33337C11.1857 5.33337 9.98975 4.13733 9.98975 2.66663C9.98975 1.19604 11.1857 0 12.6564 0C14.1271 0 15.323 1.19604 15.323 2.66663C15.323 4.13733 14.1271 5.33337 12.6564 5.33337ZM12.6564 1C11.7371 1 10.9897 1.74805 10.9897 2.66663C10.9897 3.58533 11.7371 4.33337 12.6564 4.33337C13.5757 4.33337 14.323 3.58533 14.323 2.66663C14.323 1.74805 13.5757 1 12.6564 1Z" fill="black"/>
<path d="M14.823 13.3333C14.823 14.5298 13.853 15.4999 12.6564 15.4999C11.4597 15.4999 10.4897 14.5298 10.4897 13.3333C10.4897 12.1366 11.4597 11.1665 12.6564 11.1665C13.853 11.1665 14.823 12.1366 14.823 13.3333Z" fill="black"/>
<path d="M12.6564 15.9999C11.1857 15.9999 9.98975 14.8038 9.98975 13.3333C9.98975 11.8625 11.1857 10.6665 12.6564 10.6665C14.1271 10.6665 15.323 11.8625 15.323 13.3333C15.323 14.8038 14.1271 15.9999 12.6564 15.9999ZM12.6564 11.6665C11.7371 11.6665 10.9897 12.4146 10.9897 13.3333C10.9897 14.2518 11.7371 14.9999 12.6564 14.9999C13.5757 14.9999 14.323 14.2518 14.323 13.3333C14.323 12.4146 13.5757 11.6665 12.6564 11.6665Z" fill="black"/>
<path d="M5.48962 8.00012C5.48962 9.19678 4.51953 10.1667 3.32288 10.1667C2.12634 10.1667 1.15625 9.19678 1.15625 8.00012C1.15625 6.80347 2.12634 5.8335 3.32288 5.8335C4.51953 5.8335 5.48962 6.80347 5.48962 8.00012Z" fill="black"/>
<path d="M3.32288 10.6667C1.85229 10.6667 0.65625 9.47083 0.65625 8.00012C0.65625 6.52942 1.85229 5.3335 3.32288 5.3335C4.79358 5.3335 5.98962 6.52942 5.98962 8.00012C5.98962 9.47083 4.79358 10.6667 3.32288 10.6667ZM3.32288 6.3335C2.40356 6.3335 1.65625 7.08142 1.65625 8.00012C1.65625 8.91882 2.40356 9.66675 3.32288 9.66675C4.24231 9.66675 4.98962 8.91882 4.98962 8.00012C4.98962 7.08142 4.24231 6.3335 3.32288 6.3335Z" fill="black"/>
<path d="M4.89682 7.67994C4.66477 7.67994 4.43943 7.55921 4.31675 7.34327C4.13474 7.02393 4.2468 6.61658 4.56614 6.43385L10.752 2.90723C11.0714 2.72388 11.4787 2.83594 11.6615 3.1565C11.8435 3.47584 11.7314 3.88319 11.4121 4.06593L5.22605 7.59254C5.12204 7.65186 5.00876 7.67994 4.89682 7.67994Z" fill="black"/>
<path d="M11.0824 13.1801C10.9703 13.1801 10.857 13.152 10.753 13.0927L4.56702 9.56604C4.24768 9.38403 4.13575 8.97668 4.31775 8.65662C4.49903 8.33667 4.90698 8.224 5.22705 8.40735L11.4131 11.934C11.7324 12.116 11.8443 12.5233 11.6623 12.8434C11.5391 13.0593 11.3137 13.1801 11.0824 13.1801Z" fill="black"/>
</svg>
