<svg width="10" height="10" viewBox="0 0 10 10" fill="none" xmlns="http://www.w3.org/2000/svg">
<path d="M6.94507 4.90918C6.39436 5.35471 5.70744 5.59779 4.99907 5.59779C4.29071 5.59779 3.60379 5.35471 3.05307 4.90918C2.4599 5.25118 1.96722 5.74332 1.62457 6.33612C1.28191 6.92891 1.10136 7.60148 1.10107 8.28618V9.69718C1.10107 9.77674 1.13268 9.85305 1.18894 9.90931C1.2452 9.96557 1.32151 9.99718 1.40107 9.99718H8.59607C8.67564 9.99718 8.75195 9.96557 8.80821 9.90931C8.86447 9.85305 8.89607 9.77674 8.89607 9.69718V8.28618C8.89589 7.60157 8.71549 6.92908 8.37302 6.33629C8.03054 5.7435 7.53806 5.25131 6.94507 4.90918Z" fill="white"/>
<path d="M7.49609 2.5C7.49609 2.00555 7.34947 1.5222 7.07477 1.11108C6.80007 0.699953 6.40962 0.379521 5.9528 0.190302C5.49599 0.00108321 4.99332 -0.0484251 4.50837 0.0480379C4.02342 0.144501 3.57796 0.382603 3.22833 0.732234C2.8787 1.08187 2.64059 1.52732 2.54413 2.01228C2.44767 2.49723 2.49718 2.99989 2.6864 3.45671C2.87562 3.91353 3.19605 4.30397 3.60717 4.57867C4.01829 4.85338 4.50164 5 4.99609 5C5.3244 5 5.64949 4.93534 5.9528 4.8097C6.25612 4.68406 6.53172 4.49991 6.76386 4.26777C6.99601 4.03562 7.18016 3.76002 7.30579 3.45671C7.43143 3.1534 7.49609 2.82831 7.49609 2.5Z" fill="white"/>
</svg>
