<svg width="36" height="36" viewBox="0 0 36 36" fill="none" xmlns="http://www.w3.org/2000/svg">
<g clip-path="url(#clip0_93:6331)">
<path d="M8.0578 22.293H1.1297V34.9446C1.1297 35.5271 1.60192 35.9993 2.18439 35.9993H8.23921C8.12214 35.6692 8.0578 35.3144 8.0578 34.9446V22.293ZM5.64847 32.5352C5.64847 33.1177 5.17625 33.5899 4.59379 33.5899C4.01132 33.5899 3.5391 33.1177 3.5391 32.5352V31.4056C3.5391 30.8231 4.01132 30.3509 4.59379 30.3509C5.17625 30.3509 5.64847 30.8231 5.64847 31.4056V32.5352ZM5.64847 26.8868C5.64847 27.4692 5.17625 27.9415 4.59379 27.9415C4.01132 27.9415 3.5391 27.4692 3.5391 26.8868V25.7571C3.5391 25.1746 4.01132 24.7024 4.59379 24.7024C5.17625 24.7024 5.64847 25.1746 5.64847 25.7571V26.8868Z" fill="#EA412C"/>
<path d="M27.9421 34.9446C27.9421 35.3144 27.8778 35.6692 27.7607 35.9993H33.8155C34.398 35.9993 34.8702 35.5271 34.8702 34.9446V22.293H27.9421V34.9446ZM30.3515 25.7571C30.3515 25.1746 30.8237 24.7024 31.4062 24.7024C31.9887 24.7024 32.4609 25.1746 32.4609 25.7571V26.8868C32.4609 27.4692 31.9887 27.9415 31.4062 27.9415C30.8237 27.9415 30.3515 27.4692 30.3515 26.8868V25.7571ZM30.3515 31.4056C30.3515 30.8231 30.8237 30.3509 31.4062 30.3509C31.9887 30.3509 32.4609 30.8231 32.4609 31.4056V32.5352C32.4609 33.1177 31.9887 33.5899 31.4062 33.5899C30.8237 33.5899 30.3515 33.1177 30.3515 32.5352V31.4056Z" fill="#EA412C"/>
<path d="M8.05786 14.6113C8.05786 14.2463 8.11953 13.8909 8.23737 13.5566H5.57351C5.29381 13.5566 5.02557 13.6677 4.82778 13.8656L0.309002 18.3843C0.00736157 18.6859 -0.0828494 19.1395 0.0803459 19.5337C0.243612 19.9278 0.628221 20.1848 1.05474 20.1848H8.05786V14.6113Z" fill="#EA412C"/>
<path d="M35.6911 18.3844L31.1724 13.8656C30.9746 13.6678 30.7064 13.5566 30.4267 13.5566H27.7628C27.8807 13.8909 27.9423 14.2463 27.9423 14.6113V20.1848H34.9454C35.372 20.1848 35.7566 19.9279 35.9198 19.5337C36.083 19.1396 35.9928 18.686 35.6911 18.3844Z" fill="#EA412C"/>
<path d="M16.7954 30.3516H19.2048V36H16.7954V30.3516Z" fill="#EA412C"/>
<path d="M16.7954 16.8708C16.7954 17.535 17.3358 18.0754 18.0001 18.0754C18.6643 18.0754 19.2047 17.535 19.2047 16.8708C19.2047 16.2065 18.6643 15.666 18.0001 15.666C17.3358 15.666 16.7954 16.2064 16.7954 16.8708Z" fill="#EA412C"/>
<path d="M24.7782 0H18C17.4176 0 16.9453 0.472219 16.9453 1.05469V7.39603L10.4762 13.8652C10.2784 14.063 10.1672 14.3312 10.1672 14.6109V34.9453C10.1672 35.5278 10.6394 36 11.2219 36H14.686V29.2969C14.686 28.7144 15.1582 28.2422 15.7407 28.2422H20.2595C20.8419 28.2422 21.3141 28.7144 21.3141 29.2969V36H24.7782C25.3606 36 25.8328 35.5278 25.8328 34.9453V14.6109C25.8328 14.3312 25.7217 14.0629 25.5239 13.8652L19.0547 7.39603V5.57346H24.7782C25.3606 5.57346 25.8328 5.10124 25.8328 4.51877V1.05469C25.8328 0.472219 25.3606 0 24.7782 0V0ZM16.7954 24.7781C16.7954 25.3606 16.3232 25.8328 15.7407 25.8328C15.1582 25.8328 14.686 25.3606 14.686 24.7781V23.6484C14.686 23.0659 15.1582 22.5937 15.7407 22.5937C16.3232 22.5937 16.7954 23.0659 16.7954 23.6484V24.7781ZM21.3141 24.7781C21.3141 25.3606 20.8419 25.8328 20.2594 25.8328C19.6769 25.8328 19.2047 25.3606 19.2047 24.7781V23.6484C19.2047 23.0659 19.6769 22.5937 20.2594 22.5937C20.8419 22.5937 21.3141 23.0659 21.3141 23.6484V24.7781ZM21.3141 16.8704C21.3141 18.6977 19.8274 20.1844 18 20.1844C16.1727 20.1844 14.686 18.6977 14.686 16.8704C14.686 15.043 16.1727 13.5563 18 13.5563C19.8274 13.5563 21.3141 15.0429 21.3141 16.8704Z" fill="#EA412C"/>
</g>
<defs>
<clipPath id="clip0_93:6331">
<rect width="36" height="36" fill="white"/>
</clipPath>
</defs>
</svg>
