<svg width="26" height="26" viewBox="0 0 26 26" fill="none" xmlns="http://www.w3.org/2000/svg">
<circle cx="13" cy="13" r="13" fill="white"/>
<path d="M16.9173 13.4975C15.7329 12.7926 14.404 12.3593 12.9595 12.2033C11.6364 12.0589 10.2498 12.1571 8.84 12.4922C8.53956 12.5615 8.35467 12.862 8.424 13.1624C8.49333 13.4629 8.79378 13.6477 9.09422 13.5784C11.7578 12.9486 14.3347 13.2606 16.3395 14.4566C16.432 14.5086 16.5302 14.5375 16.6227 14.5375C16.8133 14.5375 16.9982 14.4393 17.1022 14.266C17.2698 14.0002 17.1831 13.6593 16.9173 13.4975Z" fill="#145FAA"/>
<path d="M17.836 10.9953C16.4146 10.2789 14.7911 9.82242 13.1444 9.66642C11.4977 9.51042 9.8164 9.65487 8.28529 10.0882C7.92129 10.1922 7.71329 10.5678 7.81151 10.9318C7.91551 11.2958 8.29107 11.5038 8.65507 11.4055C11.4342 10.6198 14.6408 10.9202 17.2177 12.2202C17.316 12.2722 17.42 12.2953 17.524 12.2953C17.7724 12.2953 18.0151 12.1567 18.1364 11.9198C18.3097 11.5731 18.1711 11.1629 17.836 10.9953Z" fill="#145FAA"/>
<path d="M16.045 15.5817C13.9707 14.4609 11.8734 14.2297 9.04229 14.8017C8.8054 14.848 8.65518 15.0791 8.7014 15.316C8.74762 15.5529 8.97873 15.7031 9.21562 15.6569C11.8676 15.1195 13.7281 15.3217 15.6347 16.3502C15.6983 16.3849 15.7734 16.4022 15.8427 16.4022C15.9987 16.4022 16.149 16.3213 16.2241 16.1711C16.3396 15.9573 16.2587 15.6973 16.045 15.5817Z" fill="#145FAA"/>
<path d="M13 0C5.81822 0 0 5.81822 0 13C0 20.1818 5.81822 26 13 26C20.1818 26 26 20.1818 26 13C26 5.81822 20.1818 0 13 0ZM13 20.2222C9.01333 20.2222 5.77778 16.9867 5.77778 13C5.77778 9.01333 9.01333 5.77778 13 5.77778C16.9867 5.77778 20.2222 9.01333 20.2222 13C20.2222 16.9867 16.9867 20.2222 13 20.2222Z" fill="#145FAA"/>
</svg>
