<svg width="40" height="40" viewBox="0 0 40 40" fill="none" xmlns="http://www.w3.org/2000/svg">
<g clip-path="url(#clip0_112_2533)">
<path d="M35.5452 7.38574C35.5452 10.0786 33.3623 12.2615 30.6697 12.2615C27.9769 12.2615 25.7939 10.0786 25.7939 7.38574C25.7939 4.69318 27.9769 2.51025 30.6697 2.51025C33.3623 2.51025 35.5452 4.69318 35.5452 7.38574Z" fill="#4DBBAA"/>
<path d="M22.2305 13.7015L19.9164 10.2313V4.3103C19.9164 1.94763 18.0109 0 15.607 0H4.3103C1.91864 0 0 1.93604 0 4.3103V11.2134C0 13.5822 1.91162 15.5234 4.3103 15.5234H21.2555C22.189 15.5234 22.7493 14.4797 22.2305 13.7015ZM9.92554 11.1304H6.22559C5.59448 11.1304 5.05157 10.6448 5.02228 10.0143C4.99146 9.34113 5.52673 8.78662 6.19293 8.78662H9.9588C10.6238 8.78662 11.1603 9.34113 11.1292 10.014C11.1002 10.6448 10.5569 11.1304 9.92554 11.1304ZM13.7244 6.73676H6.2262C5.5954 6.73676 5.0528 6.25244 5.02258 5.62256C4.99023 4.94934 5.52612 4.39301 6.19293 4.39301H13.6911C14.3225 4.39301 14.8657 4.87854 14.8947 5.50934C14.9258 6.18225 14.3893 6.73676 13.7244 6.73676Z" fill="#4DBBAA"/>
<path d="M9.10034 29.0748C4.05304 29.0922 0 33.259 0 38.3063V38.5633C0 39.3571 0.643311 40.0004 1.43707 40.0004H16.828C17.6218 40.0004 18.2651 39.3571 18.2651 38.5633V38.2071C18.2651 33.1525 14.1589 29.0571 9.10034 29.0748Z" fill="#4DBBAA"/>
<path d="M14.8833 23.3235C14.8833 26.4995 12.3088 29.0742 9.13257 29.0742C5.9566 29.0742 3.38184 26.4995 3.38184 23.3235C3.38184 20.1475 5.9566 17.5728 9.13257 17.5728C12.3088 17.5728 14.8833 20.1475 14.8833 23.3235Z" fill="#4DBBAA"/>
<path d="M38.065 18.8282H23.2734C23.7095 15.1307 26.8541 12.2617 30.6697 12.2617C34.4844 12.2617 37.6289 15.1307 38.065 18.8282Z" fill="#4DBBAA"/>
<path d="M38.8276 21.25C39.4749 21.25 39.9995 21.7746 39.9995 22.4219V36.3181C39.9995 36.9836 39.4441 37.5204 38.7706 37.4884C38.141 37.4585 37.6558 36.9156 37.6558 36.2845V34.9789H20.1457C19.358 32.2977 17.6167 30.0195 15.3145 28.5422C16.5065 27.132 17.227 25.3101 17.227 23.3234C17.227 22.6071 17.133 21.9125 16.9572 21.25H38.8276Z" fill="#4DBBAA"/>
</g>
<defs>
<clipPath id="clip0_112_2533">
<rect width="40" height="40" fill="white"/>
</clipPath>
</defs>
</svg>
