<svg width="40" height="40" viewBox="0 0 40 40" fill="none" xmlns="http://www.w3.org/2000/svg">
<g clip-path="url(#clip0_138_8989)">
<path d="M29.375 15.3125C31.3136 15.3125 32.8906 13.7355 32.8906 11.7969V5.89672C32.9605 5.90258 33.0206 5.9375 33.092 5.9375C34.273 5.9375 35.2344 6.89883 35.2344 8.07984C35.2344 8.64406 35.0055 9.1968 34.6073 9.59508C34.1495 10.0528 34.1495 10.7945 34.6073 11.2522C34.8362 11.4811 35.136 11.5955 35.4358 11.5955C35.7355 11.5955 36.0355 11.4811 36.2643 11.2522C37.1112 10.4053 37.578 9.27805 37.578 8.07992C37.5781 5.60562 35.5662 3.59375 33.092 3.59375C32.981 3.59375 32.8906 3.50336 32.8906 3.39234V2.42188C32.8906 1.77414 32.3665 1.25 31.7187 1.25C31.071 1.25 30.5469 1.77414 30.5469 2.42188V8.49711C30.1785 8.36578 29.7878 8.28125 29.375 8.28125C27.4364 8.28125 25.8594 9.85828 25.8594 11.7969C25.8594 13.7355 27.4364 15.3125 29.375 15.3125Z" fill="#EA412C"/>
<path d="M34.0625 17.6564H25.9166C25.2551 17.6564 24.6096 17.3885 24.1473 16.9217C23.7354 16.5051 23.511 15.9707 23.5156 15.4145C23.5442 12.0431 22.1183 8.82042 19.6041 6.57276C17.0921 4.32854 13.7161 3.27347 10.3423 3.68198C4.49094 4.38808 0.078125 9.55737 0 15.7075V32.8907C0.078125 33.5379 0.602812 34.0626 1.25 34.0626H4.76562V28.2032C4.76562 27.556 5.29031 27.0314 5.9375 27.0314H34.0625C34.7097 27.0314 35.2344 27.556 35.2344 28.2032V34.0626H38.75C39.3972 34.0626 39.9219 33.5379 40 32.8907V23.5157C39.9219 20.2796 37.2986 17.6564 34.0625 17.6564Z" fill="#EA412C"/>
<path d="M30.5469 32.8906C30.5469 33.5384 30.0227 34.0625 29.375 34.0625C28.7273 34.0625 28.2031 33.5384 28.2031 32.8906V29.375H25.8594V32.8906C25.8594 33.5384 25.3352 34.0625 24.6875 34.0625C24.0398 34.0625 23.5156 33.5384 23.5156 32.8906V29.375H21.1719V32.8906C21.1719 33.5384 20.6477 34.0625 20 34.0625C19.3523 34.0625 18.8281 33.5384 18.8281 32.8906V29.375H16.4844V32.8906C16.4844 33.5384 15.9602 34.0625 15.3125 34.0625C14.6648 34.0625 14.1406 33.5384 14.1406 32.8906V29.375H11.7969V32.8906C11.7969 33.5384 11.2727 34.0625 10.625 34.0625C9.97727 34.0625 9.45312 33.5384 9.45312 32.8906V29.375H7.10938V37.5781C7.10938 38.2253 7.63406 38.75 8.28125 38.75H31.7188C32.3659 38.75 32.8906 38.2253 32.8906 37.5781V29.375H30.5469V32.8906Z" fill="#EA412C"/>
</g>
<defs>
<clipPath id="clip0_138_8989">
<rect width="40" height="40" fill="white"/>
</clipPath>
</defs>
</svg>
