<svg width="16" height="16" viewBox="0 0 16 16" fill="none" xmlns="http://www.w3.org/2000/svg">
<g clip-path="url(#clip0_135_6721)">
<path d="M0.000799941 7.2H10.0136L8.97359 6.168C8.82709 6.01777 8.74549 5.81598 8.74637 5.60615C8.74725 5.39631 8.83054 5.19522 8.97828 5.04622C9.12603 4.89721 9.32641 4.81222 9.53623 4.80956C9.74605 4.8069 9.94851 4.88679 10.1 5.032L12.5184 7.432C12.5934 7.50637 12.6529 7.59485 12.6935 7.69234C12.7341 7.78983 12.755 7.89439 12.755 8C12.755 8.10561 12.7341 8.21017 12.6935 8.30766C12.6529 8.40515 12.5934 8.49363 12.5184 8.568L10.1 10.968C9.94851 11.1132 9.74605 11.1931 9.53623 11.1904C9.32641 11.1878 9.12603 11.1028 8.97828 10.9538C8.83054 10.8048 8.74725 10.6037 8.74637 10.3939C8.74549 10.184 8.82709 9.98224 8.97359 9.832L10.0136 8.8H0C0.205239 10.8421 1.18748 12.7272 2.74357 14.0655C4.29967 15.4037 6.31057 16.0927 8.36039 15.99C10.4102 15.8872 12.3421 15.0006 13.7566 13.5134C15.1711 12.0263 15.9599 10.0524 15.9599 8C15.9599 5.94761 15.1711 3.97371 13.7566 2.48657C12.3421 0.999423 10.4102 0.112788 8.36039 0.0100399C6.31057 -0.0927087 4.29967 0.596289 2.74357 1.93453C1.18748 3.27278 0.205239 5.15789 0 7.2H0.000799941Z" fill="#F89E1B"/>
</g>
<defs>
<clipPath id="clip0_135_6721">
<rect width="16" height="16" fill="white"/>
</clipPath>
</defs>
</svg>
