<svg width="40" height="40" viewBox="0 0 40 40" fill="none" xmlns="http://www.w3.org/2000/svg">
<g clip-path="url(#clip0_104_10)">
<path d="M8.95277 24.771H1.25488V38.8284C1.25488 39.4756 1.77957 40.0002 2.42676 40.0002H9.15434C9.02426 39.6334 8.95277 39.2392 8.95277 38.8284V24.771ZM6.27574 36.1513C6.27574 36.7984 5.75105 37.3231 5.10387 37.3231C4.45668 37.3231 3.93199 36.7984 3.93199 36.1513V34.8961C3.93199 34.2489 4.45668 33.7242 5.10387 33.7242C5.75105 33.7242 6.27574 34.2489 6.27574 34.8961V36.1513ZM6.27574 29.8752C6.27574 30.5224 5.75105 31.0471 5.10387 31.0471C4.45668 31.0471 3.93199 30.5224 3.93199 29.8752V28.62C3.93199 27.9728 4.45668 27.4481 5.10387 27.4481C5.75105 27.4481 6.27574 27.9728 6.27574 28.62V29.8752Z" fill="#EA412C"/>
<path d="M31.0473 38.8284C31.0473 39.2392 30.9758 39.6334 30.8457 40.0002H37.5733C38.2205 40.0002 38.7452 39.4756 38.7452 38.8284V24.771H31.0473V38.8284ZM33.7244 28.62C33.7244 27.9728 34.2491 27.4481 34.8962 27.4481C35.5434 27.4481 36.0681 27.9728 36.0681 28.62V29.8752C36.0681 30.5224 35.5434 31.0471 34.8962 31.0471C34.2491 31.0471 33.7244 30.5224 33.7244 29.8752V28.62ZM33.7244 34.8961C33.7244 34.2489 34.2491 33.7242 34.8962 33.7242C35.5434 33.7242 36.0681 34.2489 36.0681 34.8961V36.1513C36.0681 36.7984 35.5434 37.3231 34.8962 37.3231C34.2491 37.3231 33.7244 36.7984 33.7244 36.1513V34.8961Z" fill="#EA412C"/>
<path d="M8.95311 16.2344C8.95311 15.8288 9.02163 15.4339 9.15257 15.0625H6.19272C5.88194 15.0625 5.58389 15.1859 5.36413 15.4058L0.343268 20.4266C0.00811171 20.7617 -0.0921227 21.2657 0.0892054 21.7037C0.270612 22.1416 0.697955 22.4271 1.17186 22.4271H8.95311V16.2344Z" fill="#EA412C"/>
<path d="M39.6569 20.4266L34.6361 15.4058C34.4163 15.186 34.1183 15.0625 33.8075 15.0625H30.8477C30.9786 15.4339 31.0471 15.8288 31.0471 16.2344V22.4271H38.8283C39.3023 22.4271 39.7296 22.1416 39.9109 21.7037C40.0923 21.2658 39.992 20.7618 39.6569 20.4266Z" fill="#EA412C"/>
<path d="M18.6611 33.7241H21.3382V40.0001H18.6611V33.7241Z" fill="#EA412C"/>
<path d="M18.6611 18.7449C18.6611 19.4829 19.2616 20.0834 19.9996 20.0834C20.7377 20.0834 21.3382 19.4829 21.3382 18.7449C21.3382 18.0068 20.7377 17.4062 19.9996 17.4062C19.2616 17.4062 18.6611 18.0067 18.6611 18.7449Z" fill="#EA412C"/>
<path d="M27.5312 0H20C19.3528 0 18.8281 0.524687 18.8281 1.17188V8.21781L11.6402 15.4058C11.4204 15.6255 11.2969 15.9236 11.2969 16.2344V38.8281C11.2969 39.4753 11.8216 40 12.4687 40H16.3177V32.5521C16.3177 31.9049 16.8424 31.3802 17.4896 31.3802H22.5105C23.1577 31.3802 23.6823 31.9049 23.6823 32.5521V40H27.5312C28.1784 40 28.7031 39.4753 28.7031 38.8281V16.2344C28.7031 15.9235 28.5796 15.6255 28.3598 15.4058L21.1719 8.21781V6.19273H27.5312C28.1784 6.19273 28.7031 5.66805 28.7031 5.02086V1.17188C28.7031 0.524687 28.1784 0 27.5312 0V0ZM18.6615 27.5312C18.6615 28.1784 18.1368 28.7031 17.4896 28.7031C16.8424 28.7031 16.3177 28.1784 16.3177 27.5312V26.276C16.3177 25.6288 16.8424 25.1041 17.4896 25.1041C18.1368 25.1041 18.6615 25.6288 18.6615 26.276V27.5312ZM23.6823 27.5312C23.6823 28.1784 23.1576 28.7031 22.5104 28.7031C21.8632 28.7031 21.3385 28.1784 21.3385 27.5312V26.276C21.3385 25.6288 21.8632 25.1041 22.5104 25.1041C23.1576 25.1041 23.6823 25.6288 23.6823 26.276V27.5312ZM23.6823 18.7448C23.6823 20.7752 22.0304 22.4271 20 22.4271C17.9696 22.4271 16.3177 20.7752 16.3177 18.7448C16.3177 16.7145 17.9696 15.0625 20 15.0625C22.0304 15.0625 23.6823 16.7144 23.6823 18.7448Z" fill="#EA412C"/>
</g>
<defs>
<clipPath id="clip0_104_10">
<rect width="40" height="40" fill="white"/>
</clipPath>
</defs>
</svg>
