<svg width="16" height="16" viewBox="0 0 16 16" fill="none" xmlns="http://www.w3.org/2000/svg">
<g clip-path="url(#clip0_117:8491)">
<rect width="16" height="16" transform="translate(0 -0.000976562)" fill="white"/>
<g clip-path="url(#clip1_117:8491)">
<path d="M10.8677 3.29004L8.92508 5.23338C8.28573 4.8441 7.64198 4.67638 7.00142 4.73435C5.76592 4.84607 5.04267 5.76188 4.85045 6.03988C4.3758 6.72638 3.73701 7.13795 2.89764 7.2981C2.0912 7.45195 1.53005 7.68973 1.18214 8.02504C0.438734 8.74148 0.0213273 9.77391 0.00673352 10.9322C-0.0100477 12.2626 0.521421 13.6056 1.42839 14.5249C2.34883 15.4579 3.64733 15.9955 4.99092 15.9999C4.99636 15.9999 5.0017 15.9999 5.00714 15.9999C6.15645 15.9999 7.1897 15.5992 7.91795 14.8707C8.26683 14.5217 8.52052 13.9544 8.69355 13.1363C8.87542 12.2765 9.30505 11.6356 10.007 11.177C10.2852 10.9953 11.2029 10.3075 11.3293 9.08963C11.3992 8.41616 11.2136 7.73507 10.7772 7.05501L12.7042 5.12726L10.8677 3.29004ZM8.1973 9.36732C8.1973 9.78632 8.0342 10.1802 7.73802 10.4765C7.43233 10.7823 7.0308 10.9352 6.62926 10.9352C6.22773 10.9352 5.8262 10.7823 5.52051 10.4765C5.22433 10.1802 5.06123 9.78632 5.06123 9.36732C5.06123 8.94832 5.22433 8.55441 5.52051 8.25813C6.13189 7.64657 7.12667 7.64654 7.73802 8.25813C8.0342 8.55438 8.1973 8.94832 8.1973 9.36732ZM4.61633 13.2688C4.49636 13.2688 4.37639 13.223 4.28489 13.1314L2.86664 11.7126C2.68358 11.5295 2.68358 11.2326 2.86664 11.0494C3.04967 10.8663 3.34648 10.8663 3.52955 11.0494L4.9478 12.4683C5.13086 12.6514 5.13086 12.9483 4.9478 13.1314C4.85627 13.223 4.7363 13.2688 4.61633 13.2688Z" fill="#EA412C"/>
<path d="M7.0754 9.81284C7.19449 9.69368 7.26009 9.53527 7.26009 9.3668C7.26009 9.19833 7.19449 9.03992 7.0754 8.9208C6.95246 8.79783 6.79099 8.73633 6.62955 8.73633C6.46809 8.73633 6.30665 8.79783 6.18371 8.92077C6.06462 9.03993 5.99902 9.1983 5.99902 9.3668C5.99902 9.53527 6.06462 9.69371 6.18371 9.81284C6.42955 10.0587 6.82955 10.0587 7.0754 9.81284Z" fill="#EA412C"/>
<path d="M15.6892 2.4766L15.8331 2.35079C15.9308 2.26535 15.9887 2.14319 15.9931 2.01344C15.9975 1.88369 15.9479 1.75791 15.8561 1.6661L14.3269 0.13635C14.2351 0.0445371 14.1099 -0.00480669 13.9797 -0.000744188C13.85 0.00363081 13.7279 0.0615683 13.6425 0.15935L13.5167 0.303318L13.3793 0.165818C13.1962 -0.0173067 12.8994 -0.0173067 12.7164 0.165818C12.5333 0.348943 12.5333 0.64585 12.7164 0.829006L12.8984 1.0111L12.5942 1.35929L12.3903 1.15526C12.2072 0.972131 11.9104 0.972131 11.7274 1.15526C11.5443 1.33838 11.5443 1.63529 11.7274 1.81844L11.9759 2.06713L11.5078 2.60297L13.3905 4.48635L13.9261 4.01804L14.1747 4.26669C14.2662 4.35826 14.3862 4.40404 14.5061 4.40404C14.6261 4.40404 14.7461 4.35826 14.8376 4.26669C15.0206 4.08357 15.0206 3.78666 14.8376 3.60351L14.6336 3.39947L14.9817 3.09519L15.1637 3.27729C15.2552 3.36885 15.3752 3.41463 15.4952 3.41463C15.6151 3.41463 15.7351 3.36885 15.8266 3.27729C16.0097 3.09416 16.0097 2.79726 15.8266 2.6141L15.6892 2.4766Z" fill="#EA412C"/>
</g>
</g>
<defs>
<clipPath id="clip0_117:8491">
<rect width="16" height="16" fill="white" transform="translate(0 -0.000976562)"/>
</clipPath>
<clipPath id="clip1_117:8491">
<rect width="16" height="16" fill="white" transform="translate(0 -0.000976562)"/>
</clipPath>
</defs>
</svg>
