<svg width="51" height="20" viewBox="0 0 51 20" fill="none" xmlns="http://www.w3.org/2000/svg">
<g clip-path="url(#clip0_102_17849)">
<path d="M5.60048 15.6954C8.08645 15.6954 10.4242 15.6789 12.7455 15.6954C14.0461 15.7118 14.7541 16.2551 14.8858 17.2923C15.034 18.5929 14.2766 19.4655 12.8608 19.4819C10.1937 19.5149 7.54314 19.4984 4.87608 19.4984C4.10233 19.4984 3.34499 19.5313 2.57123 19.4819C1.61635 19.4326 0.677947 19.235 0.216973 18.2472C-0.244 17.2594 0.0852665 16.3704 0.710871 15.5637C3.24623 12.3369 5.79802 9.0936 8.34984 5.86678C8.49802 5.66923 8.64617 5.47166 8.79436 5.29056C8.62972 5.01069 8.39923 5.14241 8.20166 5.12593C6.42363 5.10947 4.62914 5.12593 2.8511 5.10947C2.43952 5.10947 2.02793 5.06008 1.63282 4.97778C0.694407 4.76375 0.118193 3.82535 0.332216 2.90339C0.480386 2.27779 0.974286 1.76743 1.59989 1.61926C1.99501 1.52048 2.40659 1.47109 2.81817 1.47109C5.74863 1.45463 8.69557 1.45463 11.6261 1.47109C12.1529 1.45463 12.6632 1.52048 13.1736 1.65218C14.2931 2.03084 14.7705 3.06802 14.326 4.15459C13.9309 5.09302 13.3053 5.89972 12.6797 6.70641C10.523 9.45578 8.3663 12.1887 6.20963 14.9051C6.02851 15.1192 5.8639 15.3332 5.60048 15.6954Z" fill="white"/>
<path d="M24.6972 7.03558C25.0923 6.52522 25.5039 6.0478 26.1789 5.91607C27.4795 5.65268 28.6978 6.49228 28.7142 7.80937C28.7636 11.102 28.7471 14.3947 28.7142 17.6873C28.7142 18.5434 28.1545 19.3007 27.3478 19.5477C26.5246 19.8605 25.5862 19.6136 25.0429 18.9056C24.763 18.5599 24.6478 18.494 24.2526 18.8069C22.7545 20.0251 21.0588 20.2392 19.2313 19.6465C16.3009 18.6916 15.0991 16.4032 14.7698 13.6209C14.4241 10.6081 15.4283 8.03986 18.1283 6.45937C20.3673 5.12583 22.6393 5.24107 24.6972 7.03558ZM18.8692 13.0447C18.9021 13.7691 19.1326 14.4605 19.5606 15.0367C20.4496 16.2221 22.1453 16.4691 23.3472 15.58C23.5447 15.4319 23.7258 15.2508 23.8905 15.0367C24.8124 13.7855 24.8124 11.7276 23.8905 10.4764C23.4295 9.83434 22.7051 9.45568 21.9313 9.43922C20.1204 9.32398 18.8527 10.7234 18.8692 13.0447ZM36.1063 13.1435C35.9744 8.9124 38.7569 5.75143 42.7081 5.63619C46.9062 5.50449 49.9684 8.31974 50.1002 12.4356C50.2317 16.6008 47.6799 19.5477 43.7453 19.9428C39.4484 20.3709 36.0405 17.2593 36.1063 13.1435ZM40.2387 12.7483C40.2056 13.5715 40.4526 14.3782 40.9466 15.0532C41.852 16.2386 43.5478 16.4691 44.7329 15.5471C44.9141 15.4154 45.0623 15.2508 45.2105 15.0861C46.1653 13.8349 46.1653 11.7276 45.2269 10.4764C44.7659 9.8508 44.0414 9.45568 43.2678 9.43922C41.4899 9.34043 40.2387 10.6904 40.2387 12.7483ZM34.6575 9.86728C34.6575 12.4191 34.6738 14.9709 34.6575 17.5227C34.6738 18.6916 33.752 19.6629 32.5832 19.6959C32.3856 19.6959 32.1714 19.6794 31.9738 19.63C31.1508 19.416 30.525 18.5434 30.525 17.5063V4.41792C30.525 3.64413 30.5087 2.88683 30.525 2.11305C30.5417 0.845378 31.3484 0.0222151 32.5666 0.0222151C33.8178 0.00575179 34.6575 0.828918 34.6575 2.14598C34.6738 4.71425 34.6575 7.29901 34.6575 9.86728Z" fill="white"/>
</g>
<defs>
<clipPath id="clip0_102_17849">
<rect width="50.1212" height="20" fill="white"/>
</clipPath>
</defs>
</svg>
