<svg width="36" height="36" viewBox="0 0 36 36" fill="none" xmlns="http://www.w3.org/2000/svg">
<path d="M28.9959 15.5159V10.9958C28.9959 4.93268 24.0632 0 18.0001 0C11.9369 0 7.00424 4.93268 7.00424 10.9958V15.4732C6.32053 15.7341 5.64412 16.3225 5.64412 17.4882V23.644C5.64412 30.4571 11.1871 36 18.0001 36C24.8132 36 30.356 30.4571 30.356 23.644V17.4882C30.356 16.3822 29.6962 15.7958 28.9959 15.5159ZM20.3485 28.7428C20.3872 28.9478 20.2482 29.1154 20.0397 29.1154H16.0069C15.7984 29.1154 15.6594 28.9478 15.6981 28.7428L16.344 25.3196C15.851 24.8701 15.5416 24.2226 15.5416 23.5028C15.5416 22.1451 16.6423 21.0444 18.0001 21.0444C19.3578 21.0444 20.4585 22.1451 20.4585 23.5028C20.4585 24.203 20.1653 24.8343 19.6955 25.2821L20.3485 28.7428ZM25.2043 15.2964H10.7958V10.9958C10.7958 7.02343 14.0276 3.79153 18.0001 3.79153C21.9724 3.79153 25.2043 7.02343 25.2043 10.9958V15.2964Z" fill="#EA412C"/>
</svg>
