<svg width="10" height="10" viewBox="0 0 10 10" fill="none" xmlns="http://www.w3.org/2000/svg">
<g clip-path="url(#clip0_135_8234)">
<path d="M8.48807 6.02307C8.36158 5.29381 8.01223 4.62165 7.48807 4.09907L6.37407 2.97607H3.46407L2.35407 4.09907C1.82991 4.62165 1.48056 5.29381 1.35407 6.02307C1.24407 6.70111 1.3263 7.3964 1.59144 8.03006C1.85657 8.66373 2.29399 9.21041 2.85407 9.60807C3.46419 10.0261 4.18648 10.2498 4.92607 10.2498C5.66565 10.2498 6.38794 10.0261 6.99807 9.60807C7.55815 9.21041 7.99557 8.66373 8.2607 8.03006C8.52583 7.3964 8.60806 6.70111 8.49807 6.02307H8.48807ZM5.20407 4.02307V4.60207C5.45188 4.64323 5.67709 4.77091 5.83967 4.96242C6.00225 5.15392 6.09168 5.39686 6.09207 5.64807H5.52407C5.5238 5.51767 5.47188 5.39268 5.37967 5.30047C5.28746 5.20826 5.16247 5.15634 5.03207 5.15607H4.80807C4.67758 5.15607 4.55244 5.20791 4.46017 5.30018C4.3679 5.39245 4.31607 5.51759 4.31607 5.64807C4.31607 5.77856 4.3679 5.9037 4.46017 5.99597C4.55244 6.08824 4.67758 6.14007 4.80807 6.14007H5.03207C5.29831 6.14 5.55483 6.24012 5.75063 6.42053C5.94643 6.60094 6.06717 6.84843 6.08884 7.11379C6.11051 7.37915 6.03153 7.64295 5.8676 7.85274C5.70367 8.06253 5.46679 8.20295 5.20407 8.24607V8.82907H4.63607V8.24607C4.38825 8.20492 4.16305 8.07724 4.00047 7.88573C3.83789 7.69423 3.74846 7.45129 3.74807 7.20007H4.31607C4.31633 7.33048 4.36825 7.45547 4.46046 7.54768C4.55267 7.63989 4.67766 7.69181 4.80807 7.69207H5.03207C5.16255 7.69207 5.2877 7.64024 5.37996 7.54797C5.47223 7.4557 5.52407 7.33056 5.52407 7.20007C5.52407 7.06959 5.47223 6.94445 5.37996 6.85218C5.2877 6.75991 5.16255 6.70807 5.03207 6.70807H4.80807C4.54182 6.70815 4.2853 6.60803 4.0895 6.42762C3.8937 6.24721 3.77297 5.99972 3.75129 5.73436C3.72962 5.469 3.8086 5.2052 3.97253 4.99541C4.13647 4.78562 4.37334 4.6452 4.63607 4.60207V4.01907L5.20407 4.02307Z" fill="white"/>
<path d="M6.36102 2.40913L7.04902 0.557129H2.79102L3.47902 2.40913H6.36102Z" fill="white"/>
</g>
<defs>
<clipPath id="clip0_135_8234">
<rect width="10" height="10" fill="white"/>
</clipPath>
</defs>
</svg>
