<svg width="36" height="36" viewBox="0 0 36 36" fill="none" xmlns="http://www.w3.org/2000/svg">
<path d="M29.5201 18.5929C29.5201 17.8729 28.9695 17.3223 28.2495 17.3223C27.5295 17.3223 26.9789 17.8729 26.9789 18.5929C26.9789 23.5482 22.9554 27.5717 18.0001 27.5717C13.0448 27.5717 9.02123 23.5482 9.02123 18.5929C9.02123 17.8729 8.47065 17.3223 7.75065 17.3223C7.03065 17.3223 6.48006 17.8729 6.48006 18.5929C6.48006 24.4799 10.8848 29.4352 16.7295 30.0705V33.4587H12.113C11.393 33.4587 10.8424 34.0093 10.8424 34.7293C10.8424 35.4493 11.393 35.9999 12.113 35.9999H23.8871C24.6071 35.9999 25.1577 35.4493 25.1577 34.7293C25.1577 34.0093 24.6071 33.4587 23.8871 33.4587H19.2706V30.0705C25.1154 29.4352 29.5201 24.4799 29.5201 18.5929Z" fill="#EA412C"/>
<path d="M18 0C14.1036 0 10.9271 3.17647 10.9271 7.07294V18.5506C10.9271 22.4894 14.1036 25.6235 18 25.6659C21.8965 25.6659 25.073 22.4894 25.073 18.5929V7.07294C25.073 3.17647 21.8965 0 18 0Z" fill="#EA412C"/>
</svg>
