<svg width="16" height="16" viewBox="0 0 16 16" fill="none" xmlns="http://www.w3.org/2000/svg">
<g clip-path="url(#clip0_131_1885)">
<path d="M10.3681 8.66406L9.02809 10.0086C8.48469 10.5539 7.52856 10.5657 6.97341 10.0086L5.63331 8.66406L0.820312 13.4927C0.999469 13.5755 1.197 13.625 1.407 13.625H14.5945C14.8045 13.625 15.002 13.5756 15.1811 13.4927L10.3681 8.66406Z" fill="white"/>
<path d="M14.5944 2.375H1.40694C1.19694 2.375 0.999406 2.42444 0.820312 2.50728L5.96334 7.66738C5.96369 7.66772 5.96409 7.66778 5.96444 7.66813C5.96478 7.66847 5.96484 7.66894 5.96484 7.66894L7.63713 9.34675C7.81475 9.52438 8.18669 9.52438 8.36431 9.34675L10.0363 7.66922C10.0363 7.66922 10.0367 7.66847 10.037 7.66813C10.037 7.66813 10.0378 7.66772 10.0381 7.66738L15.181 2.50725C15.0019 2.42438 14.8044 2.375 14.5944 2.375Z" fill="white"/>
<path d="M0.149562 3.16309C0.056875 3.35052 0 3.55859 0 3.78146V12.219C0 12.4418 0.0568125 12.6499 0.149531 12.8373L4.97087 8.00037L0.149562 3.16309Z" fill="white"/>
<path d="M15.8506 3.16309L11.0293 8.00043L15.8506 12.8375C15.9433 12.65 16.0001 12.442 16.0001 12.219V3.78152C16.0001 3.55859 15.9433 3.35052 15.8506 3.16309Z" fill="white"/>
</g>
<defs>
<clipPath id="clip0_131_1885">
<rect width="16" height="16" fill="white"/>
</clipPath>
</defs>
</svg>
